<?xml version="1.0" encoding="UTF-8"?>
<!-- Generator: Blender, SVG Export for Grease Pencil - v1.0 -->
<!DOCTYPE svg PUBLIC "-//W3C//DTD SVG 1.1//EN" "http://www.w3.org/Graphics/SVG/1.1/DTD/svg11.dtd">
<svg version="1.0" x="0px" y="0px" xmlns="http://www.w3.org/2000/svg" width="709px" height="709px" viewBox="0 0 709 709">
	<g id="blender_frame_1">
		<g id="blender_object_bottom circle">
			<!--Layer: Circle_Lines-->
			<g id="Circle_Lines">
				<polyline stroke="#000000" stroke-opacity="1" fill="none" stroke-linecap="round" stroke-width="1" points="287.505005,16.624634 354.765442,10.000000 422.025818,16.624634 486.701416,36.243713 546.306824,68.103516 598.551392,110.979553 641.427490,163.224060 673.287231,222.829468 692.906250,287.505096 699.530884,354.765503 692.906250,422.025909 673.287231,486.701538 641.427490,546.306946 598.551392,598.551514 546.306824,641.427490 486.701416,673.287231 422.025818,692.906372 354.765442,699.530945 287.505005,692.906372 222.829407,673.287231 163.224060,641.427490 110.979431,598.551514 68.103455,546.306946 36.243683,486.701538 16.624573,422.025909 10.000000,354.765503 16.624573,287.505096 36.243683,222.829468 68.103455,163.224060 110.979431,110.979553 163.224060,68.103516 222.829407,36.243713 287.505005,16.624634" />
			</g>
		</g>
	</g>
	<g id="blender_frame_1">
		<g id="blender_object_bottom circle.001">
			<!--Layer: Circle_Lines-->
			<g id="Circle_Lines">
				<polygon fill="#6F6F6F" stroke="none" fill-opacity="1" points="305.669006,107.940979 354.765442,103.105408 403.861877,107.940979 451.071594,122.261841 494.580322,145.517822 532.716003,176.814941 564.013184,214.950623 587.269104,258.459351 601.589966,305.669037 606.425537,354.765503 601.589966,403.861969 587.269104,451.071655 564.013184,494.580383 532.716003,532.716064 494.580322,564.013245 451.071594,587.269165 403.861877,601.590027 354.765442,606.425598 305.669006,601.590027 258.459290,587.269165 214.950562,564.013245 176.814880,532.716064 145.517700,494.580383 122.261841,451.071655 107.940918,403.861969 103.105347,354.765503 107.940918,305.669037 122.261841,258.459351 145.517700,214.950623 176.814880,176.814941 214.950562,145.517822 258.459290,122.261841 305.669006,107.940979" />
			</g>
		</g>
	</g>
</svg>
