<?xml version="1.0" encoding="UTF-8"?>
<!-- Generator: Blender, SVG Export for Grease Pencil - v1.0 -->
<!DOCTYPE svg PUBLIC "-//W3C//DTD SVG 1.1//EN" "http://www.w3.org/Graphics/SVG/1.1/DTD/svg11.dtd">
<svg version="1.0" x="0px" y="0px" xmlns="http://www.w3.org/2000/svg" width="511px" height="511px" viewBox="0 0 511 511">
	<g id="blender_frame_1">
		<g id="blender_object_bottom circle">
			<!--Layer: Circle_Lines-->
			<g id="Circle_Lines">
				<polyline stroke="#000000" stroke-opacity="1" fill="none" stroke-linecap="round" stroke-width="1" points="207.983398,14.710083 255.879395,10.000000 303.775513,14.710083 349.839478,28.660950 392.308228,51.321228 429.554321,81.827148 460.148193,119.014709 482.912476,161.463196 496.967529,207.548401 501.766235,255.504089 497.115845,303.488983 483.186829,349.657410 460.507080,392.230469 429.943542,429.565063 392.669128,460.217957 350.117859,483.002808 303.929810,497.036926 255.886841,501.776306 207.843750,497.036926 161.655212,483.002869 119.103210,460.218018 81.827881,429.565186 51.263245,392.230652 28.582275,349.657593 14.651794,303.489166 10.000000,255.504242 14.797241,207.548553 28.850891,161.463318 51.613831,119.014832 82.206665,81.827271 119.451782,51.321289 161.919800,28.661011 207.983398,14.710083" />
			</g>
		</g>
	</g>
</svg>
