<?xml version="1.0" encoding="UTF-8"?>
<!-- Generator: Blender, SVG Export for Grease Pencil - v1.0 -->
<!DOCTYPE svg PUBLIC "-//W3C//DTD SVG 1.1//EN" "http://www.w3.org/Graphics/SVG/1.1/DTD/svg11.dtd">
<svg version="1.0" x="0px" y="0px" xmlns="http://www.w3.org/2000/svg" width="428px" height="600px" viewBox="0 0 428 600">
	<g id="blender_frame_1">
		<g id="blender_object_layer 3 islands.001">
			<!--Layer: GP_Layer-->
			<g id="GP_Layer">
				<polyline stroke="#000000" stroke-opacity="1" fill="none" stroke-linecap="round" stroke-width="1" points="98.997437,431.709778 96.978455,432.757202 94.185059,433.764771 90.768921,434.734314 86.881653,435.667664 82.674866,436.566711 78.300293,437.433105 73.909546,438.268860 69.654236,439.075623 65.686035,439.855347 62.156616,440.609802 59.217651,441.340820 57.020752,442.050232 53.565979,443.819275 50.224304,446.193848 47.058350,449.060913 44.131104,452.307556 41.505188,455.820618 39.243469,459.487244 37.408691,463.194275 36.063660,466.828735 35.271179,470.277649 35.093994,473.427979 35.594971,476.166687 36.836792,478.380859 37.310669,479.793762 36.950073,481.713196 35.906860,484.032776 34.332764,486.646118 32.379578,489.446533 30.199097,492.327698 27.942932,495.183044 25.763000,497.906067 23.810913,500.390381 22.238586,502.529480 21.197754,504.216797 20.840027,505.345947 20.771851,509.438354 20.227173,513.865540 19.303711,518.582275 18.099121,523.543274 16.711121,528.703186 15.237305,534.016846 13.775391,539.438904 12.423035,544.924072 11.277893,550.427063 10.437683,555.902588 10.000000,561.305420 10.062561,566.590210 11.140686,570.585022 13.560364,574.331177 17.084961,577.786133 21.477783,580.907288 26.502014,583.652039 31.921021,585.977844 37.498108,587.842041 42.996521,589.202148 48.179626,590.015564 52.810669,590.239685 56.652954,589.831909 59.469788,588.749573 63.529480,586.406555 68.558289,583.896606 74.295654,581.347900 80.481384,578.888855 86.854919,576.647644 93.155823,574.752686 99.123779,573.332214 104.498352,572.514526 109.019043,572.427917 112.425537,573.200684 114.457275,574.961121 114.854004,577.837524 114.940491,577.891602 115.179504,578.041138 115.540588,578.267029 115.993225,578.550232 116.506836,578.871582 117.051025,579.212036 117.595154,579.552490 118.108826,579.873840 118.561462,580.156982 118.922546,580.382874 119.161560,580.532471 119.248047,580.586548 119.428772,580.477417 119.762756,580.349304 120.219910,580.206787 120.769958,580.054199 121.382812,579.896118 122.028320,579.737000 122.676208,579.581360 123.296448,579.433594 123.858765,579.298279 124.333130,579.179871 124.689209,579.082825 124.896973,579.011658 124.974182,578.936829 125.187683,578.729919 125.510193,578.417419 125.914490,578.025574 126.373291,577.581055 126.859314,577.110046 127.345398,576.639038 127.804199,576.194458 128.208435,575.802673 128.531006,575.490173 128.744507,575.283264 128.821716,575.208435 129.738770,571.553345 130.930481,568.716370 132.442871,566.629150 134.321838,565.223022 136.613464,564.429443 139.363770,564.179810 142.618774,564.405701 146.424438,565.038452 150.826843,566.009583 155.871948,567.250549 161.605713,568.692810 168.074219,570.267700 168.100342,570.288940 168.172485,570.347595 168.281494,570.436218 168.418152,570.547180 168.573242,570.673279 168.737488,570.806763 168.901794,570.940247 169.056885,571.066284 169.193481,571.177307 169.302551,571.265930 169.374634,571.324585 169.400818,571.345825 175.502136,574.029541 181.078125,575.331970 186.158997,575.489136 190.775146,574.737183 194.956726,573.312134 198.734070,571.450195 202.137512,569.387390 205.197266,567.359924 207.943604,565.603699 210.406921,564.354980 212.617432,563.849854 214.605408,564.324341 215.183044,564.255310 215.515564,563.382141 215.710205,561.839844 215.874573,559.763428 216.116211,557.288025 216.542480,554.548706 217.260986,551.680481 218.379272,548.818420 220.004639,546.097656 222.244690,543.653198 225.206909,541.620056 228.998840,540.133362 230.178650,540.588196 231.235718,542.418640 232.282532,545.327454 233.431763,549.017700 234.796143,553.192200 236.488220,557.553894 238.620483,561.805603 241.305725,565.650391 244.656555,568.791077 248.785583,570.930481 253.805298,571.771606 259.828613,571.017334 263.718689,569.252808 266.625183,566.433167 268.710266,562.853821 270.135925,558.810120 271.064453,554.597473 271.657959,550.511292 272.078674,546.846985 272.488647,543.899963 273.050049,541.965515 273.925110,541.339172 275.275879,542.316223 277.264648,545.192200 277.286743,545.210876 277.348083,545.262512 277.440552,545.340576 277.556519,545.438416 277.688110,545.549377 277.827576,545.666992 277.967041,545.784607 278.098694,545.895630 278.214600,545.993408 278.307190,546.071472 278.368408,546.123108 278.390625,546.141846 278.438599,546.141663 278.571411,546.141113 278.772095,546.140259 279.023621,546.139221 279.309021,546.138000 279.611328,546.136719 279.913757,546.135498 280.199158,546.134277 280.450745,546.133240 280.651306,546.132385 280.784180,546.131836 280.832214,546.131653 280.850525,546.114319 280.901062,546.066406 280.977478,545.994080 281.073303,545.903320 281.182068,545.800354 281.297302,545.691284 281.412415,545.582214 281.521179,545.479309 281.616943,545.388550 281.693359,545.316223 281.743958,545.268311 281.762268,545.250916 282.181458,541.785278 284.123840,536.904297 287.313599,530.961365 291.474976,524.309814 296.332214,517.302979 301.609558,510.294250 307.031250,503.636841 312.321594,497.684265 317.204773,492.789673 321.404968,489.306519 324.646606,487.588135 326.653687,487.987793 326.745605,487.930969 326.999573,487.773926 327.383423,487.536682 327.864441,487.239197 328.410400,486.901672 328.988770,486.544128 329.567139,486.186584 330.113098,485.849060 330.594177,485.551636 330.977966,485.314331 331.232056,485.157288 331.323914,485.100464 332.221741,482.147400 333.984985,478.622681 336.448853,474.642761 339.448792,470.324158 342.820068,465.783386 346.397949,461.136902 350.017944,456.501343 353.515259,451.993164 356.725281,447.728821 359.483398,443.824951 361.624817,440.398010 362.984924,437.564392 362.770386,436.644592 361.978088,434.747253 360.779602,432.044983 359.346436,428.710693 357.850098,424.917297 356.462158,420.837463 355.354065,416.644226 354.697449,412.510193 354.663696,408.608337 355.424438,405.111511 357.151245,402.192444 360.015442,400.024109 362.198608,398.492981 364.029907,396.399475 365.579407,393.896606 366.916992,391.137634 368.112732,388.275665 369.236450,385.463928 370.358459,382.855652 371.548523,380.603912 372.876770,378.861969 374.413147,377.782990 376.227722,377.520172 378.390442,378.226654 378.479309,378.255859 378.722290,378.320892 379.084290,378.388092 379.529968,378.423645 380.023865,378.393768 380.531067,378.264740 381.015930,378.002777 381.443481,377.574097 381.778320,376.945007 381.985229,376.081696 382.028809,374.950439 381.873962,373.517395 382.103943,372.513672 382.405884,371.708374 382.780518,371.076080 383.228516,370.591400 383.750671,370.229004 384.347595,369.963531 385.019958,369.769592 385.768372,369.621765 386.593689,369.494781 387.496460,369.363159 388.477356,369.201599 389.537170,368.984772 390.982300,367.436737 391.742798,366.189606 391.925049,365.211761 391.635803,364.471405 390.981506,363.936890 390.068726,363.576477 389.004028,363.358521 387.894043,363.251282 386.845215,363.223022 385.964172,363.242126 385.357239,363.276825 385.131348,363.295441 378.436218,362.956635 373.797729,362.054749 370.962280,360.753998 369.676147,359.218628 369.685608,357.612762 370.737061,356.100677 372.576782,354.846558 374.951111,354.014587 377.606445,353.769012 380.289001,354.274017 382.745178,355.693787 384.721313,358.192566 387.165833,357.586639 388.903687,357.031403 390.045227,356.494141 390.701172,355.942047 390.982117,355.342346 390.998413,354.662323 390.860840,353.869110 390.679810,352.930054 390.565918,351.812256 390.629761,350.483063 390.981873,348.909668 391.732849,347.059265 394.138733,343.332642 396.156677,338.905396 397.773071,333.873810 398.974243,328.334259 399.746826,322.383087 400.076965,316.116577 399.951233,309.631042 399.355835,303.022858 398.277283,296.388306 396.701904,289.823761 394.616211,283.425537 392.006409,277.289917 390.124878,273.679474 388.235413,270.115540 386.437622,266.655060 384.831116,263.354980 383.515747,260.272339 382.591187,257.464081 382.157166,254.987122 382.313293,252.898499 383.159363,251.255188 384.795105,250.114044 387.320190,249.532104 390.834229,249.566345 390.872253,249.417297 390.977478,249.005066 391.136292,248.382355 391.335449,247.601807 391.561401,246.716003 391.800903,245.777588 392.040161,244.839172 392.266235,243.953339 392.465332,243.172821 392.624207,242.550110 392.729370,242.137878 392.767456,241.988800 391.310608,240.045990 390.498047,237.161957 390.267822,233.547638 390.558167,229.414001 391.307068,224.972107 392.452698,220.432922 393.933105,216.007446 395.686584,211.906677 397.651245,208.341614 399.765076,205.523254 401.966248,203.662720 404.192871,202.970825 404.262817,202.908264 404.456055,202.735413 404.747803,202.474243 405.113708,202.146851 405.528748,201.775330 405.968567,201.381775 406.408325,200.988159 406.823486,200.616638 407.189331,200.289307 407.481140,200.028137 407.674255,199.855225 407.744202,199.792725 407.455688,192.684875 408.026672,184.177368 409.246399,174.562866 410.903748,164.134460 412.787720,153.184937 414.687439,142.007141 416.391968,130.893982 417.690186,120.138306 418.371216,110.033020 418.223999,100.871033 417.037781,92.945068 414.601379,86.548157 413.833618,84.960022 413.116455,83.068298 412.458435,80.938843 411.867920,78.637329 411.353638,76.229797 410.923950,73.781921 410.587402,71.359558 410.352539,69.028564 410.227905,66.854614 410.222046,64.903809 410.343384,63.241760 410.600464,61.934387 411.111389,60.743164 411.515320,59.652405 411.800110,58.661133 411.953613,57.768188 411.963745,56.972656 411.818298,56.273376 411.505432,55.669373 411.012695,55.159485 410.328247,54.742798 409.439941,54.418152 408.335632,54.184631 407.003052,54.041138 404.368469,53.687561 402.355164,53.323303 400.925415,52.923889 400.041626,52.464417 399.666077,51.920288 399.761292,51.266785 400.289551,50.479309 401.213318,49.533142 402.494995,48.403625 404.096741,47.065918 405.981201,45.495483 408.110596,43.667664 408.171326,43.619751 408.330017,43.486206 408.551514,43.282593 408.800110,43.024353 409.040710,42.726868 409.237915,42.405762 409.356262,42.076416 409.360596,41.754211 409.215454,41.454773 408.885498,41.193420 408.335449,40.985779 407.529907,40.847107 406.652039,40.684021 405.858337,40.601990 405.146729,40.572571 404.514648,40.567505 403.959961,40.558350 403.480042,40.516785 403.072937,40.414246 402.735962,40.222351 402.467041,39.912903 402.263733,39.457275 402.123718,38.827209 402.044617,37.994385 401.917847,37.204834 401.658081,36.615723 401.292542,36.202026 400.848877,35.938538 400.354675,35.800171 399.837219,35.761719 399.323914,35.798096 398.842468,35.884216 398.420105,35.994934 398.084534,36.105164 397.862976,36.189697 397.782959,36.223389 393.596924,38.051514 390.433044,38.624390 388.254211,38.156494 387.023438,36.862732 386.703674,34.957642 387.257935,32.655762 388.649109,30.171997 390.840210,27.720764 393.794128,25.516907 397.473816,23.774963 401.842346,22.709595 406.862671,22.535522 406.926453,22.531738 407.105164,22.517883 407.379150,22.489990 407.729126,22.444153 408.135681,22.376526 408.579346,22.283081 409.040710,22.159912 409.500427,22.003235 409.938965,21.808960 410.337158,21.573303 410.675293,21.292297 410.934143,20.962036 411.179260,20.567627 411.463562,20.098389 411.748474,19.556946 411.995605,18.945801 412.166565,18.267273 412.222900,17.524109 412.125916,16.718750 411.837402,15.853638 411.318787,14.931396 410.531616,13.954346 409.437378,12.925232 407.997742,11.846497 404.027954,10.295227 398.399658,10.000000 391.470398,10.795044 383.597473,12.515015 375.138489,14.994202 366.450745,18.067139 357.891785,21.568298 349.818970,25.332031 342.589844,29.192932 336.561646,32.985229 332.092102,36.543396 329.538391,39.702087 328.999146,40.735596 328.359070,41.889160 327.650818,43.157104 326.907227,44.533508 326.161072,46.012817 325.445190,47.589172 324.792358,49.256958 324.235413,51.010376 323.807007,52.843750 323.540100,54.751343 323.467346,56.727356 323.621704,58.766235 324.062561,60.737488 324.786682,62.517334 325.732788,64.109558 326.839661,65.517883 328.045776,66.746277 329.290161,67.798523 330.511169,68.678345 331.647644,69.389709 332.638367,69.936279 333.421875,70.322021 333.937012,70.550659 334.122314,70.625977 341.322815,70.342957 346.177246,70.923828 348.914001,72.336914 349.761597,74.550110 348.948608,77.531677 346.703552,81.249878 343.254944,85.672668 338.831238,90.768372 333.661194,96.505066 327.973145,102.850891 321.995605,109.774109 315.957214,117.242676 312.505310,121.224304 309.109497,124.415100 305.782532,126.921692 302.536865,128.850525 299.384766,130.308105 296.338806,131.401001 293.411499,132.235779 290.615234,132.918945 287.962341,133.556946 285.465454,134.256348 283.136963,135.123657 280.989319,136.265503 280.895508,136.360413 280.636108,136.622803 280.244263,137.019165 279.753052,137.516052 279.195618,138.079895 278.605042,138.677246 278.014526,139.274658 277.457031,139.838501 276.965881,140.335388 276.573975,140.731750 276.314636,140.994141 276.220825,141.089050 275.947388,141.994995 275.617737,143.022644 275.261230,144.135498 274.907593,145.296875 274.586060,146.470276 274.326416,147.618958 274.157898,148.706482 274.110229,149.696289 274.212891,150.551575 274.495361,151.235962 274.987122,151.712769 275.717712,151.945435 275.793701,151.936584 276.003540,151.912292 276.320557,151.875610 276.717957,151.829590 277.168884,151.777344 277.646729,151.721985 278.124451,151.666687 278.575439,151.614441 278.972839,151.568420 279.289917,151.531738 279.499756,151.507385 279.575623,151.498596 280.770508,151.098938 282.042847,150.766479 283.347107,150.519470 284.637390,150.376282 285.868103,150.355286 286.993225,150.474976 287.967346,150.753662 288.744385,151.209595 289.278809,151.861267 289.524780,152.727112 289.436646,153.825317 288.968445,155.174438 288.868469,155.253418 288.594788,155.477966 288.187317,155.829285 287.685791,156.288696 287.130066,156.837463 286.559875,157.456848 286.014954,158.128113 285.535278,158.832642 285.160400,159.551514 284.930298,160.266113 284.884521,160.957764 285.063049,161.607666 285.397705,162.223877 285.779114,162.831543 286.184753,163.438049 286.592346,164.050659 286.979492,164.676514 287.323853,165.322815 287.603149,165.996948 287.795044,166.706055 287.876953,167.457458 287.826843,168.258240 287.622131,169.115784 287.240540,170.037292 286.761902,170.924438 286.322754,171.760925 285.893921,172.535767 285.446289,173.237976 284.950684,173.856567 284.377625,174.380676 283.698181,174.799255 282.882996,175.101440 281.902832,175.276062 280.728577,175.312378 279.330933,175.199280 277.680664,174.925903 274.794678,175.108154 272.392334,176.784668 270.502686,179.718506 269.155029,183.672607 268.378418,188.410217 268.201843,193.694214 268.654480,199.287781 269.765381,204.953918 271.563782,210.455688 274.078735,215.556152 277.339233,220.018372 281.374451,223.605347 286.158325,227.338745 290.211670,231.609192 293.493469,236.300903 295.962463,241.298126 297.577637,246.485046 298.297607,251.745880 298.081482,256.964813 296.887878,262.026031 294.675720,266.813812 291.403992,271.212341 287.031372,275.105743 281.516846,278.378296 278.921082,279.189941 276.310730,279.284882 273.697449,278.836670 271.092407,278.018829 268.507385,277.004822 265.953674,275.968170 263.442932,275.082336 260.986572,274.520905 258.596130,274.457245 256.283020,275.064972 254.058899,276.517487 251.935120,278.988281 249.139404,283.508301 246.676819,287.923065 244.462097,292.211426 242.409851,296.352234 240.434937,300.324371 238.451904,304.106598 236.375427,307.677826 234.120300,311.016907 231.601135,314.102661 228.732666,316.913910 225.429504,319.429565 221.606506,321.628387 217.551147,323.135620 213.018433,324.070953 208.144287,324.545868 203.064636,324.671692 197.915466,324.559784 192.832642,324.321533 187.952026,324.068329 183.409729,323.911560 179.341492,323.962585 175.883362,324.332794 173.171204,325.133575 171.340942,326.476257 166.713684,331.994080 161.663635,337.230286 156.301208,342.246765 150.736572,347.105408 145.080017,351.868042 139.441833,356.596619 133.932251,361.352997 128.661621,366.199097 123.740112,371.196686 119.278076,376.407776 115.385803,381.894165 112.173401,387.717773 111.871582,389.384125 112.242493,391.325684 113.163147,393.471222 114.510193,395.749725 116.160400,398.089966 117.990601,400.420837 119.877625,402.671204 121.698120,404.769958 123.329041,406.645935 124.647034,408.228088 125.528931,409.445190 125.851562,410.226135 125.640930,414.841125 125.085449,418.977600 124.177917,422.625000 122.911316,425.772827 121.278503,428.410645 119.272400,430.527832 116.885803,432.113953 114.111694,433.158386 110.942871,433.650696 107.372314,433.580383 103.392883,432.936951 99.217224,431.771179" />
				<polyline stroke="#000000" stroke-opacity="1" fill="none" stroke-linecap="round" stroke-width="1" points="98.997437,431.709778 99.052246,431.676575 99.102783,431.651733 99.149170,431.635315 99.191711,431.627258 99.230408,431.627625 99.265564,431.636658 99.297241,431.654236 99.325745,431.680542 99.351196,431.715515 99.373718,431.759338 99.393555,431.811951 99.409973,431.870422" />
			</g>
		</g>
	</g>
	<g id="blender_frame_1">
		<g id="blender_object_GPencil.013">
			<!--Layer: Circle_Lines-->
			<g id="Circle_Lines">
				<polygon fill="#6F6F6F" stroke="none" fill-opacity="1" points="322.622131,308.502228 325.144409,308.253784 327.666687,308.502228 330.092041,309.237915 332.327209,310.432678 334.286377,312.040527 335.894287,313.999695 337.088989,316.234924 337.824646,318.660248 338.073120,321.182526 337.824646,323.704773 337.088989,326.130096 335.894287,328.365326 334.286377,330.324493 332.327209,331.932343 330.092041,333.127075 327.666687,333.862793 325.144409,334.111206 322.622131,333.862793 320.196838,333.127075 317.961609,331.932343 316.002441,330.324493 314.394653,328.365326 313.199829,326.130096 312.464172,323.704773 312.215698,321.182526 312.464172,318.660248 313.199829,316.234924 314.394653,313.999695 316.002441,312.040527 317.961609,310.432678 320.196838,309.237915 322.622131,308.502228" />
			</g>
		</g>
	</g>
	<g id="blender_frame_1">
		<g id="blender_object_GPencil.019">
			<!--Layer: Circle_Lines-->
			<g id="Circle_Lines">
				<polygon fill="#6F6F6F" stroke="none" fill-opacity="1" points="209.822144,494.502258 212.344421,494.253845 214.866638,494.502258 217.292053,495.237976 219.527222,496.432678 221.486389,498.040588 223.094238,499.999756 224.288940,502.234924 225.024658,504.660278 225.273071,507.182556 225.024658,509.704773 224.288940,512.130127 223.094238,514.365356 221.486389,516.324524 219.527222,517.932373 217.292053,519.127075 214.866638,519.862854 212.344421,520.111206 209.822144,519.862854 207.396851,519.127075 205.161560,517.932373 203.202393,516.324524 201.594543,514.365356 200.399841,512.130127 199.664124,509.704773 199.415710,507.182556 199.664124,504.660278 200.399841,502.234924 201.594543,499.999756 203.202393,498.040588 205.161560,496.432678 207.396851,495.237976 209.822144,494.502258" />
			</g>
		</g>
	</g>
</svg>
