<?xml version="1.0" encoding="UTF-8"?>
<!-- Generator: Blender, SVG Export for Grease Pencil - v1.0 -->
<!DOCTYPE svg PUBLIC "-//W3C//DTD SVG 1.1//EN" "http://www.w3.org/Graphics/SVG/1.1/DTD/svg11.dtd">
<svg version="1.0" x="0px" y="0px" xmlns="http://www.w3.org/2000/svg" width="635px" height="593px" viewBox="0 0 635 593">
	<g id="blender_frame_1">
		<g id="blender_object_layer 2 island">
			<!--Layer: GP_Layer-->
			<g id="GP_Layer">
				<polyline stroke="#000000" stroke-opacity="1" fill="none" stroke-linecap="round" stroke-width="1" points="10.912689,295.643402 17.651062,295.653198 22.920380,295.843384 27.057251,296.378387 30.398804,297.422394 33.281891,299.139801 36.043488,301.694977 39.020508,305.252197 42.549957,309.975800 46.968750,316.030090 52.613831,323.579468 59.822083,332.788147 68.930573,343.820557 74.764099,349.041748 80.264954,351.183655 85.467346,350.800415 90.405701,348.446106 95.114441,344.674866 99.627869,340.040771 103.980408,335.097961 108.206421,330.400513 112.340393,326.502563 116.416626,323.958221 120.469482,323.321564 124.533264,325.146729 128.287048,327.228699 132.239746,327.803650 136.292053,327.124512 140.344849,325.444305 144.298889,323.015930 148.054871,320.092316 151.513733,316.926392 154.576111,313.771179 157.142822,310.879608 159.114685,308.504578 160.392517,306.899078 160.876953,306.316010 164.600525,307.457611 167.829956,308.654724 170.614868,309.923859 173.004883,311.281738 175.049561,312.744812 176.798584,314.329712 178.301514,316.052979 179.607971,317.931213 180.767639,319.980988 181.830139,322.218842 182.844971,324.661377 183.861755,327.325165 185.054382,329.783020 186.740540,332.130676 188.865662,334.328278 191.375122,336.335846 194.214417,338.113464 197.328857,339.621185 200.663940,340.819092 204.165100,341.667206 207.777649,342.125641 211.447144,342.154449 215.118958,341.713684 218.738525,340.763428 222.479431,339.345398 226.130310,337.740021 229.696777,335.963074 233.184326,334.030457 236.598450,331.957977 239.944641,329.761475 243.228516,327.456787 246.455444,325.059753 249.631104,322.586182 252.760925,320.051941 255.850403,317.472870 258.905090,314.864777 259.253723,314.143097 259.331848,312.934875 259.214661,311.335846 258.977295,309.441711 258.694824,307.348236 258.442566,305.151123 258.295593,302.946106 258.329102,300.828827 258.618347,298.895142 259.238342,297.240662 260.264343,295.961151 261.771484,295.152344 267.679077,293.794647 272.449524,293.372742 276.258362,293.671417 279.281250,294.475525 281.693787,295.569824 283.671570,296.739197 285.390198,297.768433 287.025269,298.442352 288.752380,298.545776 290.747253,297.863556 293.185303,296.180481 296.242249,293.281372 297.130615,291.341553 297.500427,288.203888 297.480713,284.089508 297.200439,279.219482 296.788696,273.814911 296.374268,268.096893 296.086365,262.286499 296.053833,256.604919 296.405640,251.273163 297.270874,246.512360 298.778442,242.543640 301.057434,239.588043 307.472961,234.398285 314.031311,230.154633 320.541199,226.570618 326.811707,223.359863 332.651733,220.235962 337.870361,216.912354 342.276367,213.102722 345.678833,208.520447 347.886597,202.879272 348.708740,195.892700 347.954163,187.274170 345.431763,176.737427 344.881104,172.806396 345.161804,167.575439 346.259583,161.347229 348.160217,154.424683 350.849487,147.110535 354.312988,139.707336 358.536682,132.518127 363.506104,125.845520 369.207031,119.992310 375.625244,115.261292 382.746521,111.955078 390.556519,110.376709 396.377869,109.006836 401.762329,105.918335 406.694458,101.441528 411.159241,95.906799 415.141174,89.644592 418.625305,82.985352 421.596130,76.259521 424.038574,69.797424 425.937256,63.929443 427.277100,58.986206 428.042786,55.297913 428.218994,53.195007 427.873779,45.934082 428.496155,39.826294 430.005432,34.830139 432.321350,30.904602 435.363220,28.008362 439.050598,26.100098 443.303040,25.138611 448.040100,25.082703 453.181152,25.891052 458.645874,27.522461 464.353638,29.935486 470.224060,33.089111 473.410522,34.384277 475.862488,34.384949 477.734680,33.304810 479.181763,31.357178 480.358154,28.755676 481.418640,25.713684 482.517639,22.444885 483.809753,19.162659 485.449646,16.080383 487.591858,13.411804 490.390930,11.370361 494.001587,10.169373 496.783997,10.000000 499.936584,10.431091 503.379456,11.373962 507.032959,12.739685 510.817322,14.439697 514.652710,16.384949 518.459351,18.486877 522.157471,20.656555 525.667236,22.805298 528.908936,24.844299 531.802795,26.684692 534.268921,28.237854 543.054260,34.048340 551.534119,39.864563 559.728821,45.729797 567.658142,51.686951 575.342529,57.779175 582.801758,64.049500 590.056152,70.540894 597.125732,77.296570 604.030518,84.359619 610.790649,91.772827 617.426270,99.579529 623.957397,107.822632 625.265747,109.702209 625.605835,111.592285 625.131470,113.467957 623.996948,115.304382 622.356201,117.076538 620.363159,118.759644 618.171997,120.328796 615.936646,121.758972 613.811279,123.025391 611.949829,124.103088 610.506470,124.967224 609.635010,125.592834 608.999268,125.385742 607.272583,124.901367 604.726318,124.344971 601.631470,123.921814 598.259277,123.837280 594.880859,124.296570 591.767456,125.505066 589.190186,127.667969 587.419922,130.990601 586.728271,135.678284 587.386108,141.936340 589.664673,149.969971 590.598145,154.749207 590.274780,159.344055 588.966919,163.780945 586.946655,168.086365 584.486206,172.286926 581.857483,176.408997 579.333069,180.479248 577.184875,184.524048 575.685120,188.570007 575.106079,192.643616 575.719849,196.771362 577.798645,200.979797 577.698730,201.194824 577.422363,201.789307 577.004944,202.687317 576.481750,203.812988 575.887878,205.090454 575.258850,206.443787 574.629761,207.797180 574.035889,209.074646 573.512695,210.200378 573.095215,211.098389 572.818909,211.692810 572.718994,211.907837 566.657959,212.777161 562.939453,214.385376 561.212402,216.629395 561.125610,219.406250 562.328186,222.612915 564.468933,226.146362 567.196899,229.903473 570.160950,233.781372 573.010071,237.676910 575.393188,241.487091 576.959167,245.108917 577.357056,248.439331 576.348877,254.833221 574.809204,260.601227 572.948120,265.889923 570.975220,270.845917 569.100708,275.615967 567.534363,280.346649 566.486267,285.184631 566.166016,290.276611 566.783875,295.769165 568.549500,301.809052 571.672974,308.542786 576.364197,316.117188 577.167542,319.388916 576.518738,324.200653 574.703186,330.247528 572.005798,337.224579 568.711975,344.826843 565.106995,352.749390 561.475830,360.687286 558.103821,368.335602 555.276245,375.389374 553.278259,381.543671 552.395020,386.493622 552.911804,389.934174 553.124878,391.670898 552.193665,393.669678 550.352234,395.874634 547.834595,398.229858 544.874512,400.679382 541.705994,403.167358 538.562866,405.637939 535.679260,408.035095 533.288940,410.302979 531.625977,412.385620 530.924194,414.227295 531.417480,415.771851 531.805908,415.887085 532.843262,416.202454 534.354797,416.692017 536.165894,417.329834 538.101990,418.089966 539.988098,418.946472 541.649902,419.873535 542.912415,420.845093 543.601013,421.835327 543.541199,422.818298 542.558105,423.768005 540.477173,424.658630 538.362854,425.579041 536.294739,426.972534 534.326416,428.758179 532.511597,430.854980 530.903992,433.182068 529.557251,435.658508 528.525146,438.203369 527.861145,440.735718 527.619019,443.174683 527.852661,445.439209 528.615417,447.448364 529.961182,449.121399 533.488708,453.602295 535.097473,458.890015 534.996887,464.779663 533.396423,471.066772 530.505493,477.546631 526.533508,484.014526 521.689819,490.265869 516.183899,496.096069 510.225159,501.300354 504.022949,505.674194 497.786804,509.012817 491.726074,511.111694 486.335876,513.403931 480.427124,517.653992 474.104309,523.428589 467.471558,530.294373 460.633545,537.817932 453.694641,545.565979 446.759155,553.105103 439.931580,560.001892 433.316284,565.823120 427.017822,570.135376 421.140503,572.505249 415.788635,572.499451 409.473328,571.641479 401.136292,571.757324 391.183960,572.645264 380.023132,574.103394 368.060242,575.930115 355.701904,577.923523 343.354675,579.881958 331.425171,581.603577 320.319946,582.886719 310.445618,583.529419 302.208801,583.330078 296.015991,582.086914 289.216248,579.880981 281.399841,577.948242 272.765747,576.297485 263.512878,574.937134 253.840210,573.875732 243.946472,573.121948 234.030823,572.684204 224.291931,572.571167 214.928894,572.791321 206.140564,573.353271 198.125916,574.265564 191.083740,575.536743 188.926941,575.338135 186.311951,574.001709 183.379700,571.721924 180.271240,568.693604 177.127319,565.111084 174.089111,561.169067 171.297485,557.062256 168.893311,552.985168 167.017700,549.132446 165.811462,545.698608 165.415649,542.878296 165.971130,540.866028 168.536438,535.423706 169.088379,529.725891 167.993347,523.807251 165.617798,517.702637 162.328247,511.446899 158.491089,505.074707 154.472717,498.621094 150.639587,492.120667 147.358154,485.608276 144.994873,479.118835 143.916199,472.687012 144.488464,466.347717 145.555603,460.859253 145.950012,455.537476 145.737793,450.525269 144.985046,445.965210 143.757812,441.999756 142.122253,438.771729 140.144348,436.423706 137.890259,435.098267 135.426025,434.938110 132.817688,436.085938 130.131409,438.684204 127.433289,442.875610 123.904480,450.583008 120.741577,459.231445 117.819397,468.444824 115.012390,477.847290 112.195374,487.062500 109.242920,495.714722 106.029663,503.427795 102.430420,509.825623 98.319641,514.532227 93.572083,517.171570 88.062500,517.367554 81.665344,514.744202 68.839996,504.689148 57.415558,491.897034 47.345825,476.791016 38.584381,459.794189 31.085114,441.329590 24.801514,421.820312 19.687439,401.689514 15.696533,381.360138 12.782501,361.255341 10.899078,341.798187 10.000000,323.411743 10.038757,306.519104 10.087646,305.890991 10.169067,305.060211 10.273041,304.067871 10.389679,302.954956 10.508972,301.762512 10.621063,300.531586 10.716095,299.303192 10.783966,298.118317 10.814941,297.018066 10.798889,296.043457 10.725952,295.235504 10.593292,294.665253" />
			</g>
		</g>
	</g>
	<g id="blender_frame_1">
		<g id="blender_object_GPencil.012">
			<!--Layer: Circle_Lines-->
			<g id="Circle_Lines">
				<polygon fill="#6F6F6F" stroke="none" fill-opacity="1" points="53.686340,402.970703 55.788208,402.763672 57.890106,402.970703 59.911255,403.583740 61.773895,404.579346 63.406525,405.919250 64.746399,407.551880 65.742004,409.414551 66.355072,411.435669 66.562134,413.537598 66.355072,415.639465 65.742004,417.660583 64.746399,419.523254 63.406525,421.155884 61.773895,422.495728 59.911255,423.491333 57.890106,424.104492 55.788208,424.311462 53.686340,424.104492 51.665192,423.491333 49.802521,422.495728 48.169922,421.155884 46.830048,419.523254 45.834412,417.660583 45.221313,415.639465 45.014313,413.537598 45.221313,411.435669 45.834412,409.414551 46.830048,407.551880 48.169922,405.919250 49.802521,404.579346 51.665192,403.583740 53.686340,402.970703" />
			</g>
		</g>
	</g>
	<g id="blender_frame_1">
		<g id="blender_object_GPencil.021">
			<!--Layer: Circle_Lines-->
			<g id="Circle_Lines">
				<polygon fill="#6F6F6F" stroke="none" fill-opacity="1" points="510.686340,115.970642 512.788269,115.763672 514.890076,115.970642 516.911255,116.583740 518.773926,117.579346 520.406494,118.919250 521.746460,120.551880 522.742065,122.414551 523.355164,124.435669 523.562195,126.537598 523.355164,128.639465 522.742065,130.660522 521.746460,132.523193 520.406494,134.155884 518.773926,135.495789 516.911255,136.491333 514.890076,137.104431 512.788269,137.311462 510.686340,137.104431 508.665283,136.491333 506.802551,135.495789 505.169922,134.155884 503.830017,132.523193 502.834473,130.660522 502.221375,128.639465 502.014343,126.537598 502.221375,124.435669 502.834473,122.414551 503.830017,120.551880 505.169922,118.919250 506.802551,117.579346 508.665283,116.583740 510.686340,115.970642" />
			</g>
		</g>
	</g>
	<g id="blender_frame_1">
		<g id="blender_object_GPencil.022">
			<!--Layer: Circle_Lines-->
			<g id="Circle_Lines">
				<polygon fill="#6F6F6F" stroke="none" fill-opacity="1" points="257.686340,426.970703 259.788208,426.763672 261.890076,426.970703 263.911194,427.583740 265.773926,428.579346 267.406494,429.919250 268.746399,431.551880 269.742004,433.414551 270.355103,435.435669 270.562134,437.537598 270.355103,439.639465 269.742004,441.660522 268.746399,443.523193 267.406494,445.155884 265.773926,446.495728 263.911194,447.491333 261.890076,448.104492 259.788208,448.311523 257.686340,448.104492 255.665222,447.491333 253.802551,446.495728 252.169922,445.155884 250.830078,443.523193 249.834412,441.660522 249.221375,439.639465 249.014282,437.537598 249.221375,435.435669 249.834412,433.414551 250.830078,431.551880 252.169922,429.919250 253.802551,428.579346 255.665222,427.583740 257.686340,426.970703" />
			</g>
		</g>
	</g>
	<g id="blender_frame_1">
		<g id="blender_object_GPencil.023">
			<!--Layer: Circle_Lines-->
			<g id="Circle_Lines">
				<polygon fill="#6F6F6F" stroke="none" fill-opacity="1" points="458.686340,424.970703 460.788269,424.763672 462.890137,424.970703 464.911255,425.583740 466.773926,426.579346 468.406555,427.919250 469.746460,429.551880 470.742065,431.414551 471.355164,433.435669 471.562195,435.537598 471.355164,437.639465 470.742065,439.660522 469.746460,441.523193 468.406555,443.155884 466.773926,444.495728 464.911255,445.491333 462.890137,446.104492 460.788269,446.311523 458.686340,446.104492 456.665161,445.491333 454.802551,444.495728 453.169922,443.155884 451.830078,441.523193 450.834412,439.660522 450.221375,437.639465 450.014343,435.537598 450.221375,433.435669 450.834412,431.414551 451.830078,429.551880 453.169922,427.919250 454.802551,426.579346 456.665161,425.583740 458.686340,424.970703" />
			</g>
		</g>
	</g>
	<g id="blender_frame_1">
		<g id="blender_object_GPencil.024">
			<!--Layer: Circle_Lines-->
			<g id="Circle_Lines">
				<polygon fill="#6F6F6F" stroke="none" fill-opacity="1" points="204.686340,368.970642 206.788208,368.763641 208.890076,368.970642 210.911194,369.583740 212.773926,370.579376 214.406555,371.919220 215.746399,373.551880 216.742004,375.414551 217.355103,377.435669 217.562134,379.537567 217.355103,381.639435 216.742004,383.660553 215.746399,385.523224 214.406555,387.155853 212.773926,388.495728 210.911194,389.491364 208.890076,390.104462 206.788208,390.311493 204.686340,390.104462 202.665222,389.491364 200.802551,388.495728 199.169922,387.155853 197.830017,385.523224 196.834412,383.660553 196.221313,381.639435 196.014282,379.537567 196.221313,377.435669 196.834412,375.414551 197.830017,373.551880 199.169922,371.919220 200.802551,370.579376 202.665222,369.583740 204.686340,368.970642" />
			</g>
		</g>
	</g>
</svg>
