<?xml version="1.0" encoding="UTF-8"?>
<!-- Generator: Blender, SVG Export for Grease Pencil - v1.0 -->
<!DOCTYPE svg PUBLIC "-//W3C//DTD SVG 1.1//EN" "http://www.w3.org/Graphics/SVG/1.1/DTD/svg11.dtd">
<svg version="1.0" x="0px" y="0px" xmlns="http://www.w3.org/2000/svg" width="611px" height="601px" viewBox="0 0 611 601">
	<g id="blender_frame_1">
		<g id="blender_object_cutout layer 2">
			<!--Layer: GP_Layer-->
			<g id="GP_Layer">
				<polygon stroke="#000000" stroke-opacity="1" fill="none" stroke-linecap="round" stroke-width="1" points="148.586853,100.277954 147.531311,102.686279 146.053406,104.672974 144.236328,106.235840 142.163269,107.372559 139.917542,108.081116 137.582275,108.359131 135.240906,108.204529 132.976501,107.615051 130.872375,106.588501 129.011780,105.122681 127.477905,103.215454 126.354004,100.864685 125.941772,99.421326 125.686096,97.967712 125.582886,96.517151 125.628296,95.083008 125.818115,93.678833 126.148438,92.318054 126.615112,91.014038 127.214294,89.780273 127.941833,88.630127 128.793762,87.577148 129.765991,86.634644 130.854614,85.816101 133.304993,84.561340 135.773010,83.916138 138.200317,83.831848 140.528625,84.259766 142.699524,85.151062 144.654663,86.457153 146.335754,88.129333 147.684326,90.118958 148.642151,92.377258 149.150757,94.855774 149.151794,97.505493 148.615112,100.139343" />
			</g>
		</g>
	</g>
	<g id="blender_frame_1">
		<g id="blender_object_layer 1 - island">
			<!--Layer: GP_Layer-->
			<g id="GP_Layer">
				<polyline stroke="#000000" stroke-opacity="1" fill="none" stroke-linecap="round" stroke-width="1" points="88.326294,553.187866 87.551270,550.896729 87.683960,549.209534 88.608093,548.029541 90.207153,547.260376 92.364990,546.805603 94.965271,546.568604 97.891541,546.453003 101.027649,546.362244 104.257141,546.199951 107.463684,545.869507 110.530945,545.274597 113.342590,544.318726 114.527405,544.166626 115.305542,544.826538 115.743408,546.152954 115.907288,548.000549 115.863647,550.223877 115.678772,552.677429 115.419067,555.215759 115.150940,557.693481 114.940674,559.964905 114.854675,561.884644 114.959412,563.307190 115.321167,564.086975 116.077698,564.419373 117.139099,564.519592 118.446472,564.429749 119.941101,564.191895 121.564087,563.848206 123.256714,563.440735 124.960083,563.011658 126.615417,562.603027 128.164001,562.257141 129.546936,562.015869 130.705505,561.921509 131.580872,562.016174 133.749817,562.712402 136.090271,563.566467 138.542847,564.532715 141.048279,565.565369 143.547119,566.618713 145.980103,567.647095 148.287842,568.604736 150.411194,569.445923 152.290527,570.125122 153.866638,570.596313 155.080261,570.814026 155.871887,570.732300 156.821167,570.147217 157.678711,569.395874 158.464661,568.518127 159.199097,567.553955 159.902100,566.543091 160.593872,565.525635 161.294434,564.541321 162.023987,563.630005 162.802612,562.831665 163.650391,562.186035 164.587463,561.733154 165.633911,561.512756 166.951172,561.596130 168.122681,562.036926 169.169434,562.783997 170.112610,563.785950 170.973267,564.991455 171.772461,566.349365 172.531372,567.808350 173.270996,569.317078 174.012512,570.824341 174.776917,572.278748 175.585266,573.629150 176.458740,574.824097 177.563782,575.721252 178.831116,576.130249 180.225403,576.131653 181.711670,575.806030 183.254639,575.234009 184.819031,574.496033 186.369751,573.672791 187.871582,572.844849 189.289368,572.092712 190.587891,571.497070 191.731995,571.138306 192.686523,571.097168 194.378662,571.490967 196.340759,572.094849 198.506714,572.884460 200.810608,573.835754 203.186584,574.924377 205.568604,576.126099 207.890564,577.416809 210.086731,578.772339 212.090942,580.168335 213.837280,581.580750 215.259766,582.985229 216.292419,584.357605 217.068970,585.400818 217.926636,586.024292 218.853699,586.287781 219.838562,586.250977 220.869629,585.973633 221.935303,585.515564 223.023926,584.936401 224.123840,584.295898 225.223511,583.653809 226.311279,583.069824 227.375488,582.603760 228.404663,582.315247 229.768188,582.306519 231.340759,582.658691 233.068298,583.283508 234.896912,584.093262 236.772644,584.999817 238.641479,585.915283 240.449341,586.751648 242.142456,587.420898 243.666687,587.835144 244.968018,587.906372 245.992554,587.546509 246.686157,586.667725 247.263672,585.677551 247.984924,584.856934 248.825256,584.205017 249.760071,583.721313 250.764526,583.405090 251.814026,583.255676 252.883911,583.272461 253.949463,583.454712 254.986023,583.801880 255.968811,584.313232 256.873291,584.988159 257.674683,585.826050 259.174438,587.685669 260.415344,589.165649 261.418945,590.263855 262.206604,590.978333 262.799622,591.306946 263.219604,591.247681 263.487854,590.798584 263.625793,589.957520 263.654907,588.722595 263.596497,587.091614 263.472046,585.062805 263.302979,582.634033 263.354248,581.275208 263.660217,580.088196 264.175293,579.086426 264.853699,578.283447 265.649475,577.692566 266.516846,577.327087 267.410156,577.200500 268.283386,577.326111 269.090881,577.717407 269.786804,578.387756 270.325378,579.350647 270.660706,580.619446 271.301025,583.360901 272.260132,585.318237 273.518982,586.592773 275.058594,587.285706 276.859680,587.498230 278.903198,587.331604 281.170166,586.887146 283.641479,586.266052 286.297913,585.569580 289.120544,584.899048 292.090271,584.355652 295.187988,584.040649 299.228333,584.033081 303.459473,584.291077 307.784241,584.698669 312.105957,585.139893 316.327576,585.498718 320.352234,585.659180 324.083008,585.505249 327.422974,584.920898 330.275085,583.790161 332.542542,581.997070 334.128235,579.425720 334.935364,575.960144 335.114624,574.669250 335.431946,573.587341 335.880371,572.700867 336.453186,571.996643 337.143433,571.461060 337.944214,571.080811 338.848755,570.842468 339.850159,570.732666 340.941467,570.738037 342.115906,570.845154 343.366516,571.040588 344.686584,571.311035 346.634705,571.175171 347.970764,569.871521 348.809753,567.600952 349.266968,564.564148 349.457581,560.961975 349.496704,556.995117 349.499451,552.864319 349.581177,548.770386 349.856995,544.913757 350.441895,541.495117 351.451111,538.715027 352.999695,536.774109 355.335815,534.604248 357.611450,531.888184 359.847778,528.776917 362.065918,525.421509 364.287231,521.973022 366.532959,518.582275 368.824219,515.400391 371.182434,512.578247 373.628723,510.266846 376.184509,508.616882 378.870972,507.779419 381.709534,507.905396 382.834534,508.256287 383.931763,508.752441 385.006714,509.356567 386.065186,510.031616 387.112976,510.740112 388.155701,511.444824 389.199097,512.108643 390.248840,512.694214 391.310730,513.164246 392.390320,513.481567 393.493530,513.608887 394.625854,513.508850 396.288452,512.329651 397.835938,509.666992 399.239136,505.786987 400.468262,500.955750 401.494263,495.439331 402.287903,489.503845 402.819763,483.415161 403.060547,477.439148 402.981079,471.841736 402.552185,466.888489 401.744324,462.845215 400.528381,459.977478 399.933716,459.344421 399.182312,458.931335 398.305969,458.693848 397.336426,458.587646 396.306030,458.568298 395.246399,458.591492 394.189575,458.612915 393.167542,458.588074 392.212097,458.472778 391.355225,458.222534 390.628906,457.793091 390.065063,457.140015 389.894104,456.412964 390.154053,455.657532 390.763367,454.886658 391.640503,454.113342 392.703857,453.350586 393.871887,452.611328 395.063110,451.908447 396.195801,451.255188 397.188599,450.664307 397.959839,450.148865 398.427917,449.721802 398.511475,449.396179 398.342712,448.748535 398.292847,447.798950 398.339600,446.616577 398.460693,445.270325 398.633911,443.829102 398.836853,442.361877 399.047363,440.937622 399.243164,439.625244 399.401978,438.493652 399.501526,437.611938 399.519409,437.048828 399.433594,436.873413 397.874084,437.221069 396.522766,437.328491 395.389771,437.220093 394.485474,436.920288 393.819946,436.453430 393.403748,435.844055 393.246948,435.116516 393.359802,434.295288 393.752686,433.404663 394.435730,432.469238 395.419067,431.513306 396.713257,430.561401 400.077820,427.583984 403.184509,423.254517 406.056091,417.817627 408.715454,411.518066 411.185486,404.600525 413.489014,397.309570 415.648987,389.889771 417.688354,382.585510 419.630066,375.641235 421.496887,369.300964 423.311890,363.809082 425.098022,359.409668 425.534485,358.829895 426.150879,358.408203 426.906189,358.111694 427.759338,357.907471 428.669006,357.762451 429.594177,357.643799 430.493652,357.518433 431.326416,357.353516 432.051208,357.115967 432.627075,356.772949 433.012817,356.291382 433.167175,355.638428 433.965698,352.904541 435.907959,350.706787 438.743591,348.941650 442.222351,347.505737 446.093689,346.295654 450.107483,345.207886 454.013184,344.139160 457.560547,342.986084 460.499084,341.645264 462.578674,340.013184 463.548828,337.986603 463.159241,335.462158 462.289124,333.093567 461.565674,330.527466 460.936646,327.831360 460.349182,325.072876 459.750854,322.319397 459.089172,319.638458 458.311523,317.097565 457.365417,314.764160 456.198181,312.705719 454.757446,310.989746 452.990601,309.683655 450.845093,308.854919 448.049927,307.659454 445.882690,305.679230 444.269897,303.029663 443.138306,299.826141 442.414368,296.184052 442.024536,292.218750 441.895691,288.045654 441.954102,283.780060 442.126343,279.537354 442.339233,275.432770 442.519287,271.581573 442.592834,268.098969 442.942993,267.581879 443.838257,266.553711 445.151855,265.105682 446.756775,263.329041 448.526489,261.314972 450.333862,259.154663 452.052307,256.939331 453.554810,254.760223 454.714722,252.708374 455.405273,250.875061 455.499634,249.351471 454.871094,248.228607 454.274536,247.560242 454.030945,246.942200 454.096436,246.365143 454.427307,245.819702 454.979736,245.296509 455.710083,244.786285 456.574341,244.279510 457.528931,243.766998 458.529907,243.239288 459.533691,242.687073 460.496155,242.100952 461.373962,241.471558" />
				<polyline stroke="#000000" stroke-opacity="1" fill="none" stroke-linecap="round" stroke-width="1" points="22.454468,201.026581 21.337158,201.542297 20.059082,201.734283 18.627197,201.398071 17.395203,200.546112 16.504211,199.360016 16.045898,198.019043 15.799011,196.625793 15.866760,196.327484 15.953369,195.970795 16.052673,195.570374 16.158386,195.140961 16.264221,194.697235 16.363892,194.253784 16.451172,193.825287 16.519775,193.426422 16.563354,193.071869 16.575684,192.776245 16.550598,192.554260 16.542542,192.530701 16.530090,192.501434 16.514221,192.467346 16.495911,192.429352 16.476135,192.388214 16.455627,192.344879 16.435425,192.300262 16.416504,192.255096 16.399719,192.210419 16.386108,192.166992 16.376465,192.125702 16.371643,192.087524 16.391174,192.002838 16.447266,191.795624 16.534241,191.485077 16.646301,191.090424 16.777710,190.630890 16.922852,190.125793 17.075989,189.594269 17.231323,189.055542 17.383118,188.528961 17.525696,188.033600 17.653381,187.588806 17.760254,187.213745 18.698059,184.058624 19.680115,180.916565 20.705078,177.787872 21.771484,174.672699 22.878052,171.571350 24.023132,168.484070 25.205383,165.411011 26.423584,162.352600 27.676025,159.308960 28.961487,156.280334 30.278442,153.266968 31.625488,150.269104 34.486816,144.462769 37.518127,138.723206 40.712341,133.055725 44.062317,127.465942 47.560730,121.959045 51.200562,116.540710 54.974609,111.216125 58.875610,105.990967 62.896484,100.870422 67.030090,95.859985 71.269287,90.965149 75.606750,86.191101 77.900574,83.858276 80.218079,81.548035 82.559204,79.261292 84.924011,76.998901 87.312500,74.761719 89.724487,72.550659 92.160217,70.366638 94.619568,68.210510 97.102478,66.083069 99.609009,63.985352 102.139160,61.918091 104.692871,59.882202 107.962402,57.442139 111.273987,55.057190 114.625732,52.727295 118.015869,50.452209 121.442688,48.231873 124.904297,46.066162 128.398926,43.954834 131.924744,41.897888 135.479919,39.895142 139.062744,37.946411 142.671265,36.051636 146.303772,34.210632 150.093872,32.414429 153.929626,30.684937 157.806580,29.022156 161.720276,27.425964 165.666382,25.895935 169.640564,24.432129 173.638489,23.034241 177.655701,21.702087 181.687744,20.435608 185.730408,19.234497 189.779297,18.098633 193.829956,17.027893 198.756470,15.902649 203.708374,14.869629 208.682983,13.930786 213.677307,13.087769 218.688721,12.342346 223.714233,11.696167 228.751099,11.150940 233.796387,10.708496 238.847412,10.370422 243.901245,10.138550 248.955200,10.014465 254.006287,10.000000 254.835999,10.026917 255.767212,10.058716 256.778870,10.094788 257.850281,10.134155 258.960327,10.176147 260.088074,10.219727 261.212769,10.264221 262.313293,10.308838 263.368958,10.352661 264.358643,10.394836 265.261475,10.434631 266.056641,10.471313 266.314697,10.486511 266.645752,10.508728 267.034668,10.534729 267.466736,10.561401 267.926819,10.585571 268.400085,10.604187 268.871582,10.614014 269.326355,10.612061 269.749573,10.595093 270.126221,10.559998 270.441345,10.503845 270.680054,10.423218" />
				<polyline stroke="#000000" stroke-opacity="1" fill="none" stroke-linecap="round" stroke-width="1" points="268.039673,10.593994 263.356873,15.148621 257.369995,20.787231 250.366577,27.312683 242.634460,34.528259 234.461487,42.236633 226.135620,50.240540 217.945251,58.342712 210.178894,66.345520 203.125244,74.051025 197.073120,81.261475 192.311523,87.778687 189.129700,93.404358 187.479065,96.445801 185.444458,99.422852 183.142639,102.351501 180.690613,105.247498 178.205322,108.126648 175.803772,111.004822 173.602966,113.897827 171.719849,116.821350 170.271606,119.791321 169.375244,122.823364 169.147827,125.933472 169.706299,129.137207 170.290405,132.791016 169.893677,136.399170 168.667114,139.854553 166.761963,143.050415 164.329590,145.879639 161.521057,148.235352 158.487610,150.010437 155.380615,151.097839 152.351440,151.390625 149.551331,150.781616 147.131836,149.163879 145.244263,146.430542 142.953247,142.642883 140.598450,140.566772 138.231079,140.025208 135.902588,140.841125 133.664490,142.837402 131.568054,145.837280 129.664978,149.663757 128.006470,154.139771 126.644226,159.088501 125.629639,164.332703 125.014343,169.695251 124.849854,174.999115 124.478516,178.137207 123.365784,181.164185 121.610474,184.069031 119.311584,186.840698 116.567993,189.468079 113.478516,191.940216 110.142334,194.245972 106.658203,196.374207 103.125183,198.313873 99.642273,200.053925 96.308472,201.583130 93.223022,202.890503 92.503784,203.166779 91.749084,203.439575 90.984131,203.694427 90.234192,203.916931 89.524597,204.092651 88.880493,204.207062 88.327271,204.245789 87.890137,204.194305 87.594299,204.038208 87.465088,203.763062 87.527771,203.354370 87.807556,202.797699 89.585266,199.670685 90.197998,197.741302 89.773560,196.868225 88.439636,196.910126 86.323914,197.725830 83.554016,199.174103 80.257507,201.113770 76.562134,203.403687 72.595520,205.902618 68.485413,208.469299 64.359497,210.962524 60.345581,213.240936 58.537903,214.087006 56.994873,214.489746 55.681702,214.507751 54.563904,214.199432 53.606750,213.623505 52.775574,212.838531 52.035706,211.902985 51.352417,210.875519 50.690979,209.814667 50.016907,208.779053 49.295288,207.827179 48.491577,207.017670 46.495667,205.844971 44.185303,205.243011 41.667786,205.086151 39.050354,205.248810 36.439941,205.605255 33.943970,206.029877 31.669678,206.396942 29.724304,206.580872 28.215088,206.455902 27.249268,205.896393 26.934204,204.776672 27.377136,202.971039 27.742065,201.814148 27.898560,200.812592 27.867554,199.973785 27.670227,199.305267 27.327576,198.814301 26.860840,198.508392 26.291138,198.394897 25.639526,198.481232 24.927002,198.774811 24.174866,199.283051 23.404175,200.013458 22.636047,200.973328" />
				<polygon stroke="#000000" stroke-opacity="1" fill="none" stroke-linecap="round" stroke-width="1" points="552.222534,146.036987 548.164307,139.281250 543.953979,132.634766 539.586060,126.106140 535.054810,119.703918 530.355103,113.436584 525.481323,107.312683 520.427979,101.340759 515.189819,95.529480 509.761353,89.887146 504.136841,84.422607 498.311157,79.144165 492.278809,74.060425 491.760376,73.662354 490.826416,72.956970 489.559937,72.006165 488.044067,70.871765 486.361816,69.615601 484.596130,68.299866 482.829895,66.986145 481.146179,65.736511 479.627930,64.612793 478.357971,63.676880 477.419434,62.990601 476.895325,62.615784 466.128296,55.740845 455.326904,49.551819 444.462219,44.019104 433.505493,39.113098 422.427673,34.804077 411.200073,31.062561 399.793823,27.858582 388.180054,25.163025 376.330078,22.946106 364.215027,21.178162 351.806335,19.829773 339.074951,18.871277 337.981934,18.818237 336.856506,18.768982 335.726501,18.740784 334.619995,18.750977 333.564819,18.817078 332.588867,18.956543 331.720032,19.186768 330.986023,19.525085 330.414917,19.989014 330.034668,20.595947 329.873047,21.363281 329.957886,22.308533 330.443542,23.792542 331.172485,25.175537 332.094788,26.477844 333.160156,27.720093 334.318542,28.922668 335.519592,30.106201 336.713318,31.291077 337.849670,32.497864 338.878296,33.747070 339.749084,35.059021 340.411926,36.454407 340.816711,37.953552 341.600769,40.815613 342.982300,43.505798 344.882629,45.998413 347.223267,48.267578 349.925598,50.287720 352.910828,52.033020 356.100464,53.477722 359.416016,54.595947 362.778503,55.362122 366.109497,55.750183 369.330261,55.734619 372.362122,55.289429 373.172241,54.949219 374.232544,54.287842 375.493286,53.371704 376.904907,52.266968 378.417419,51.040283 379.981262,49.757751 381.546753,48.485779 383.064087,47.290710 384.483643,46.238953 385.755493,45.396790 386.830200,44.830627 387.657898,44.606689 388.148987,44.635132 388.610107,44.751221 389.043884,44.944031 389.453186,45.202515 389.840759,45.515625 390.209412,45.872314 390.561951,46.261719 390.901001,46.672668 391.229492,47.094177 391.550293,47.515259 391.865967,47.924805 392.179504,48.311951 394.300720,50.308289 396.859802,52.042725 399.733398,53.578735 402.798706,54.979370 405.932373,56.308289 409.011292,57.628540 411.912354,59.003601 414.512207,60.496704 416.687744,62.171204 418.315735,64.090393 419.273010,66.317688 419.436279,68.916199 419.229553,70.740479 418.980835,72.560608 418.701050,74.377686 418.401001,76.192627 418.091614,78.006348 417.783630,79.820007 417.487976,81.634521 417.215393,83.450806 416.976929,85.269958 416.783325,87.092957 416.645386,88.920654 416.574036,90.754272 416.591675,92.098206 416.654602,93.461060 416.768250,94.833740 416.937988,96.207581 417.169434,97.573425 417.467834,98.922607 417.839050,100.246094 418.288147,101.535156 418.820984,102.780701 419.442688,103.973938 420.158936,105.106018 420.975220,106.167969 422.527222,107.870972 424.150574,109.504578 425.837341,111.075745 427.579895,112.591125 429.369995,114.057800 431.200073,115.482483 433.062134,116.872070 434.948303,118.233398 436.850769,119.573364 438.761536,120.898743 440.672852,122.216431 442.576721,123.533386 443.115601,123.895447 443.832275,124.374512 444.692627,124.943909 445.662170,125.576843 446.707092,126.246765 447.792786,126.926819 448.885315,127.590393 449.950317,128.210693 450.953674,128.761047 451.861084,129.214661 452.638245,129.544861 453.251221,129.724976 454.093506,129.740051 454.813416,129.498901 455.424805,129.035583 455.941223,128.384277 456.376404,127.578979 456.743835,126.653870 457.057190,125.643311 457.330139,124.581177 457.576416,123.501587 457.809448,122.438904 458.043091,121.427002 458.290833,120.500244 458.981995,118.535400 459.836487,116.646667 460.833496,114.824951 461.952087,113.061340 463.171387,111.346680 464.470642,109.672058 465.828796,108.028259 467.225220,106.406372 468.638855,104.797363 470.048889,103.192139 471.434570,101.581604 472.774780,99.956848 472.826599,99.901733 472.884766,99.847961 472.948486,99.796143 473.016479,99.746887 473.087830,99.700684 473.161499,99.658020 473.236511,99.619507 473.311768,99.585693 473.386169,99.557129 473.458862,99.534302 473.528687,99.517761 473.594727,99.508057 474.952942,99.343811 476.322021,99.103699 477.698242,98.813293 479.078186,98.498047 480.458191,98.183167 481.834778,97.894348 483.204224,97.656860 484.562988,97.496033 485.907471,97.437622 487.234131,97.506714 488.539673,97.729004 489.820068,98.129822 491.106689,98.951965 492.519897,100.363342 494.029175,102.253357 495.604370,104.511719 497.215088,107.027954 498.831421,109.691528 500.422852,112.392151 501.959229,115.019226 503.410278,117.462280 504.745972,119.610840 505.935547,121.354431 506.949097,122.582458 507.761230,123.365051 508.653076,124.142517 509.610840,124.892639 510.620361,125.593079 511.667847,126.221558 512.739380,126.755920 513.821045,127.173828 514.899048,127.453003 515.959229,127.571167 516.988037,127.506104 517.971313,127.235535 518.895264,126.737183 518.986694,126.665283 519.098755,126.565857 519.227905,126.443542 519.371582,126.302673 519.526367,126.147827 519.689209,125.983459 519.856934,125.813965 520.026367,125.643799 520.194702,125.477661 520.358643,125.319824 520.514893,125.174866 520.660767,125.047180 521.179443,124.642212 521.739136,124.261963 522.333740,123.912170 522.956787,123.598633 523.602173,123.327087 524.263428,123.103455 524.934570,122.933289 525.609131,122.822632 526.280884,122.777039 526.943604,122.802429 527.590942,122.904541 528.216675,123.089233 528.904907,123.403076 529.542236,123.800720 530.132324,124.272461 530.678833,124.808472 531.185303,125.398987 531.655396,126.034363 532.092529,126.704712 532.500244,127.400269 532.882446,128.111328 533.242432,128.828186 533.583984,129.540955 533.910522,130.239868 534.000610,130.404724 534.100220,130.524475 534.209351,130.603333 534.327393,130.645569 534.454102,130.655579 534.589233,130.637451 534.732300,130.595520 534.883301,130.533997 535.041870,130.457153 535.207397,130.369202 535.380005,130.274536 535.559204,130.177307 535.853271,130.054993 536.158813,129.983643 536.471802,129.960022 536.787964,129.980774 537.103760,130.042908 537.414673,130.143127 537.716919,130.278076 538.006470,130.444763 538.279053,130.639771 538.530762,130.859863 538.757568,131.101990 538.955444,131.362793 539.176147,131.948425 539.274536,132.773071 539.277710,133.786255 539.212891,134.937439 539.107544,136.175964 538.988525,137.451233 538.883423,138.712646 538.819336,139.909607 538.823486,140.991699 538.923096,141.908142 539.145386,142.608459 539.517700,143.042053 539.699951,143.118713 539.965820,143.187378 540.298706,143.248901 540.682251,143.304382 541.099854,143.354919 541.535400,143.401428 541.972046,143.444885 542.393555,143.486450 542.783691,143.527100 543.125732,143.567749 543.403442,143.609558 543.600342,143.653503 544.507812,143.928040 545.458618,144.206421 546.429321,144.483215 547.396851,144.753174 548.337646,145.011108 549.228516,145.251770 550.046265,145.469727 550.767578,145.659912 551.369263,145.816956 551.827759,145.935730 552.119873,146.010803 552.217407,146.035645" />
				<polyline stroke="#000000" stroke-opacity="1" fill="none" stroke-linecap="round" stroke-width="1" points="462.618774,241.828217 462.365906,241.670380 462.092346,241.418671 461.803833,241.089813 461.506165,240.700684 461.205139,240.268097 460.906616,239.808838 460.616272,239.339783 460.340149,238.877716 460.083557,238.439484 459.852783,238.041870 459.653320,237.701752 459.491150,237.435883 455.923035,232.186646 452.192444,227.050110 448.308472,222.025360 444.280396,217.111450 440.117004,212.307404 435.827759,207.612244 431.421448,203.025085 426.907410,198.544983 422.294617,194.170959 417.592102,189.902069 412.809204,185.737366 407.954773,181.675812 406.393860,180.486450 404.116821,178.846802 401.264709,176.850311 397.978516,174.590515 394.399292,172.160767 390.667969,169.654358 386.925720,167.164917 383.313354,164.785706 379.971802,162.610229 377.042114,160.731689 374.665161,159.243591 372.981750,158.239197 369.201355,156.240601 364.594604,153.954285 359.321350,151.484375 353.541382,148.935059 347.414612,146.410522 341.100830,144.015137 334.759766,141.852783 328.551025,140.027954 322.634583,138.644592 317.170044,137.806946 312.317017,137.619080 308.235352,138.185303 305.187805,139.429932 302.342285,141.316711 299.656616,143.708313 297.088745,146.467590 294.596680,149.457336 292.138245,152.540527 289.671570,155.579712 287.154480,158.437805 284.545044,160.977417 281.801086,163.061462 278.880676,164.552490 275.741760,165.313232 274.568237,165.532898 273.515320,165.918884 272.576660,166.456482 271.746094,167.130981 271.017395,167.927856 270.384338,168.832214 269.840576,169.829468 269.380066,170.904907 268.996338,172.043762 268.683228,173.231415 268.434509,174.453156 268.244019,175.694244 267.143555,178.447418 264.698181,181.566071 261.164368,184.973297 256.798096,188.592316 251.855957,192.346161 246.593994,196.157959 241.268738,199.950775 236.136597,203.647705 231.453857,207.171783 227.477051,210.446014 224.462646,213.393524 222.667175,215.937164 220.069275,221.029388 217.289490,226.053650 214.489197,230.979767 211.829895,235.777527 209.473206,240.416870 207.580627,244.867371 206.313660,249.098999 205.833923,253.081421 206.303101,256.784485 207.882568,260.177917 210.734070,263.231537 215.019104,265.915070 215.851929,266.622925 216.318298,267.659668 216.455933,268.945404 216.302734,270.400208 215.896362,271.944153 215.274780,273.497314 214.475708,274.979767 213.536987,276.311523 212.496460,277.412689 211.391907,278.203247 210.261108,278.603333 209.142029,278.532928 206.173645,278.021545 202.737732,278.121765 198.943237,278.777405 194.899414,279.932281 190.715088,281.530273 186.499573,283.515198 182.361816,285.830902 178.410950,288.421265 174.756042,291.230072 171.506348,294.201233 168.770935,297.278534 166.658936,300.405792 166.692871,300.870361 166.802917,302.082428 166.942505,303.877106 167.065369,306.089508 167.124939,308.554749 167.074707,311.107910 166.868225,313.584076 166.458984,315.818329 165.800537,317.645660 164.846313,318.901062 163.549866,319.419647 161.864868,319.036377 161.288879,318.937347 160.386414,318.991455 159.229980,319.176056 157.891968,319.468414 156.444763,319.845856 154.960754,320.285675 153.512451,320.765167 152.172180,321.261597 151.012390,321.752319 150.105530,322.214600 149.524048,322.625702 149.340332,322.962921 149.596680,323.570099 150.153687,324.263611 150.954163,325.025238 151.940857,325.836731 153.056580,326.679840 154.243958,327.536346 155.445801,328.388000 156.604858,329.216583 157.663818,330.003784 158.565430,330.731415 159.252502,331.381226 159.667664,331.934967 159.808105,332.979492 159.145447,333.786469 157.827759,334.385254 156.003479,334.805237 153.820801,335.075745 151.427917,335.226166 148.973206,335.285858 146.604797,335.284241 144.471130,335.250610 142.720276,335.214386 141.500549,335.204956 140.960266,335.251648 139.903992,336.258301 139.482910,337.609955 139.592896,339.251434 140.129761,341.127502 140.989258,343.182861 142.067261,345.362488 143.259583,347.610962 144.462036,349.873108 145.570374,352.093750 146.480408,354.217529 147.087891,356.189209 147.288696,357.953613 147.083557,359.111572 146.584290,359.895874 145.830627,360.348389 144.862122,360.510986 143.718445,360.425476 142.438965,360.133667 141.063538,359.677490 139.631653,359.098816 138.182922,358.439453 136.756958,357.741211 135.393311,357.046021 134.131470,356.395630 133.641907,355.894775 133.213196,354.990112 132.834045,353.761108 132.493042,352.287354 132.178711,350.648254 131.879761,348.923218 131.584656,347.191895 131.282166,345.533569 130.960632,344.027832 130.608765,342.754150 130.215210,341.791809 129.768433,341.220398 127.620178,340.534668 125.036438,340.984802 122.097778,342.360718 118.884827,344.452026 115.478271,347.048584 111.958740,349.940186 108.406799,352.916504 104.903259,355.767212 101.528748,358.282166 98.364075,360.250854 95.489929,361.462891 92.987122,361.708008 90.078308,361.186646 87.334961,360.489014 84.742065,359.696777 82.284607,358.891296 79.947449,358.154175 77.715454,357.567017 75.573547,357.211243 73.506653,357.168457 71.499695,357.520081 69.537537,358.347717 67.605042,359.732849 65.687134,361.757141 64.629211,362.511230 63.512512,362.419678 62.360291,361.657288 61.195984,360.398804 60.043030,358.819214 58.924561,357.093262 57.864014,355.395691 56.884766,353.901367 56.010071,352.784912 55.263245,352.221252 54.667664,352.385132 54.246643,353.451294 52.854370,357.040466 50.646301,359.272522 47.858032,360.301636 44.725342,360.282227 41.484192,359.368530 38.370239,357.715027 35.619263,355.476074 33.466858,352.806030 32.148804,349.859314 31.900757,346.790283 32.958435,343.753296 35.557129,340.902649 36.745728,339.635345 36.619507,338.726898 35.403564,338.119995 33.322998,337.757172 30.602844,337.581146 27.468201,337.534424 24.144104,337.559662 20.855530,337.599457 17.827759,337.596405 15.285706,337.493134 13.454529,337.232239 12.559204,336.756348 12.548218,336.822388 12.517273,337.010773 12.468872,337.307007 12.405640,337.696533 12.330261,338.164795 12.245239,338.697266 12.153381,339.279419 12.057068,339.896698 11.959106,340.534546 11.862000,341.178436 11.768372,341.813843 11.680908,342.426147 11.418701,344.702881 11.190002,346.913086 10.991516,349.070312 10.819885,351.188171 10.671631,353.280273 10.543518,355.360107 10.432068,357.441284 10.333862,359.537415 10.245728,361.662109 10.164001,363.828857 10.085571,366.051270 10.006897,368.342896 10.000000,374.827759 10.149109,381.338745 10.454895,387.866211 10.918335,394.400696 11.540161,400.932495 12.321228,407.452026 13.262329,413.949646 14.364380,420.415771 15.628052,426.840820 17.054321,433.215027 18.643921,439.528931 20.397827,445.772888 21.088440,447.948181 21.786865,450.078491 22.494751,452.171753 23.213867,454.235596 23.945679,456.277954 24.691895,458.306641 25.454163,460.329285 26.234192,462.353882 27.033386,464.388184 27.853638,466.440002 28.696411,468.517090 29.563477,470.627258 29.901367,471.382324 30.328186,472.293335 30.826355,473.327820 31.378052,474.453369 31.965698,475.637756 32.571594,476.848511 33.178101,478.053162 33.767456,479.219482 34.322021,480.314941 34.824097,481.307251 35.256104,482.163940 35.600098,482.852661 36.434814,484.451416 37.280457,486.044312 38.136414,487.631714 39.002136,489.213806 39.876953,490.790894 40.760437,492.363098 41.651733,493.930847 42.550415,495.494385 43.455811,497.053955 44.367371,498.609802 45.284424,500.162231 46.206543,501.711365 46.626038,502.366150 47.248657,503.329346 48.034241,504.538818 48.942627,505.932739 49.933533,507.449158 50.966858,509.026001 52.002319,510.601440 52.999817,512.113403 53.919067,513.500000 54.719910,514.699158 55.362122,515.648926 55.805603,516.287354 58.212158,519.495178 60.674500,522.671082 63.190735,525.812927 65.759033,528.918640 68.377502,531.986084 71.044189,535.013245 73.757263,537.997925 76.514954,540.938049 79.315125,543.831543 82.156128,546.676270 85.035889,549.470215 87.952637,552.211304" />
				<polygon stroke="#000000" stroke-opacity="1" fill="none" stroke-linecap="round" stroke-width="1" points="586.843262,257.600067 588.860962,263.305786 590.712524,269.015106 592.405640,274.732788 593.947998,280.463715 595.347046,286.212677 596.610474,291.984528 597.745850,297.784027 598.760986,303.616058 599.663330,309.485443 600.460449,315.397034 601.160156,321.355591 601.770142,327.365997 601.750977,327.689789 601.652466,328.087799 601.487549,328.540710 601.268799,329.029175 601.009277,329.533844 600.722046,330.035431 600.419678,330.514557 600.115356,330.951843 599.821777,331.328064 599.551880,331.623749 599.318359,331.819641 599.134399,331.896362 598.097900,331.979767 596.957764,332.069183 595.736694,332.153656 594.458008,332.222198 593.144287,332.263977 591.819092,332.267914 590.504761,332.223206 589.224976,332.118835 588.002197,331.943939 586.859619,331.687500 585.820312,331.338654 584.907104,330.886475 584.511963,330.563477 584.035645,330.048737 583.495483,329.379089 582.908936,328.591492 582.293701,327.722839 581.666870,326.810089 581.046387,325.890137 580.449219,324.999786 579.892944,324.176086 579.395264,323.455841 578.973389,322.876007 578.644897,322.473450 577.718262,321.540436 576.714355,320.673584 575.641357,319.874664 574.507935,319.145630 573.322388,318.488190 572.093262,317.904266 570.828979,317.395691 569.537964,316.964355 568.228760,316.612030 566.909546,316.340607 565.589111,316.151917 564.275635,316.047852 563.121948,315.978027 561.964355,315.906281 560.804688,315.827698 559.644897,315.737396 558.486694,315.630524 557.331909,315.502106 556.182373,315.347260 555.039795,315.161194 553.906006,314.938873 552.782959,314.675446 551.672241,314.366058 550.575928,314.005737 549.686523,313.651886 548.706787,313.223175 547.667480,312.725220 546.598999,312.163574 545.532227,311.543762 544.497681,310.871368 543.526001,310.151886 542.647949,309.390961 541.894165,308.594055 541.295288,307.766754 540.881836,306.914551 540.684448,306.043121 540.752075,304.813110 541.110229,303.492493 541.717285,302.106598 542.531982,300.680603 543.512939,299.239807 544.618896,297.809479 545.808228,296.414856 547.039551,295.081268 548.271851,293.833954 549.463379,292.698181 550.572998,291.699219 551.558960,290.862335 552.251953,290.249634 552.848267,289.626648 553.348755,288.990784 553.753784,288.339478 554.064209,287.670074 554.280396,286.980042 554.402954,286.266724 554.432861,285.527618 554.370483,284.760101 554.216309,283.961578 553.971436,283.129456 553.636108,282.261169 553.290894,281.570160 552.770264,280.663666 552.106445,279.586731 551.331543,278.384277 550.477539,277.101288 549.576782,275.782806 548.661133,274.473785 547.763062,273.219147 546.914429,272.063934 546.147339,271.053070 545.494141,270.231598 544.986450,269.644409 544.052734,268.757629 542.908813,267.847107 541.593506,266.921509 540.145752,265.989655 538.603882,265.060303 537.006958,264.142151 535.393433,263.244019 533.802246,262.374695 532.272095,261.542877 530.841431,260.757324 529.549072,260.026794 528.433838,259.360077 527.810669,259.009491 527.019653,258.602631 526.093872,258.151428 525.066895,257.667633 523.971558,257.163116 522.841553,256.649719 521.709717,256.139282 520.609497,255.643677 519.574097,255.174683 518.636597,254.744202 517.830566,254.364075 517.188965,254.046143 516.353394,253.675537 515.411743,253.359894 514.386108,253.086609 513.298706,252.843231 512.171631,252.617249 511.027222,252.396088 509.887451,252.167206 508.774780,251.918060 507.711060,251.636200 506.718506,251.308960 505.819336,250.924011 505.035767,250.468597 504.632202,250.008057 504.385132,249.322662 504.279541,248.457733 504.300537,247.458588 504.433228,246.370483 504.662598,245.238739 504.973633,244.108612 505.351562,243.025391 505.781372,242.034454 506.247925,241.181000 506.736450,240.510376 507.231934,240.067871 507.876587,239.810760 508.617188,239.752167 509.435425,239.863251 510.312866,240.115234 511.231201,240.479187 512.172119,240.926392 513.117188,241.427948 514.048096,241.954987 514.946411,242.478821 515.793701,242.970520 516.571655,243.401245 517.261963,243.742188 517.835815,243.946991 518.425171,244.070526 519.027588,244.125977 519.640625,244.126740 520.262329,244.086060 520.890259,244.017273 521.522217,243.933594 522.155762,243.848328 522.788818,243.774902 523.418945,243.726379 524.043945,243.716248 524.661621,243.757721 526.024292,244.116699 527.774902,244.850159 529.835815,245.881104 532.129883,247.132568 534.579346,248.527527 537.106934,249.988953 539.634888,251.439880 542.085815,252.803223 544.382202,254.002014 546.446533,254.959106 548.201050,255.597504 549.568481,255.840240 550.573730,255.870728 551.552734,255.934479 552.502441,256.009399 553.419678,256.073517 554.301270,256.104645 555.144043,256.080750 555.944946,255.979828 556.700684,255.779755 557.408325,255.458557 558.064453,254.994080 558.665894,254.364227 559.209839,253.547119 559.281616,253.244232 559.266479,252.796600 559.189941,252.231720 559.077148,251.577393 558.953247,250.861053 558.843506,250.110504 558.773071,249.353241 558.767456,248.616943 558.851807,247.929230 559.051147,247.317719 559.390991,246.810089 559.896240,246.433899 560.434448,246.232452 561.037842,246.120514 561.687500,246.086334 562.364624,246.118073 563.050415,246.203949 563.726318,246.332123 564.373413,246.490723 564.972778,246.667999 565.505859,246.852173 565.953613,247.031372 566.297485,247.193726 566.518433,247.327576 567.154541,247.901245 567.679810,248.548248 568.120972,249.256683 568.505005,250.014954 568.858765,250.811066 569.209106,251.633392 569.582642,252.470032 570.006836,253.309235 570.508057,254.139191 571.113159,254.948212 571.849365,255.724365 572.743286,256.455963 573.208862,256.773529 573.797852,257.141479 574.495117,257.532104 575.285278,257.917664 576.153198,258.270386 577.083618,258.562592 578.061401,258.766510 579.071045,258.854401 580.097656,258.798553 581.125610,258.571167 582.140015,258.144531 583.125488,257.490997 583.198486,257.493622 583.400269,257.500885 583.705078,257.511719 584.087280,257.525085 584.521118,257.539978 584.980957,257.555359 585.440796,257.570190 585.875244,257.583466 586.258423,257.594116 586.564697,257.601105 586.768188,257.603455 586.839478,257.600281" />
				<polygon stroke="#000000" stroke-opacity="1" fill="none" stroke-linecap="round" stroke-width="1" points="482.860107,545.430542 487.683350,541.704590 492.428345,537.859375 497.087158,533.897156 501.651611,529.820374 506.113647,525.631409 510.465332,521.332764 514.698608,516.926575 518.805298,512.415466 522.777344,507.801758 526.606689,503.087769 530.285522,498.276001 533.805420,493.368835 534.107422,492.779175 534.239136,492.155518 534.217773,491.507812 534.061523,490.846191 533.788086,490.180603 533.414917,489.521240 532.959839,488.878052 532.440796,488.261108 531.875244,487.680481 531.281006,487.146240 530.675903,486.668335 530.077759,486.256958 530.033325,486.228699 530.028198,486.225342 530.053589,486.241211 530.100586,486.270752 530.160034,486.308167 530.223022,486.347839 530.280762,486.384094 530.324097,486.411316 530.344238,486.423706 530.331909,486.415649 530.278564,486.381592 530.174927,486.315674 528.729126,485.331238 527.264526,484.260376 525.809937,483.107544 524.394409,481.877380 523.047241,480.574585 521.796997,479.203613 520.673096,477.769287 519.704468,476.276062 518.919922,474.728577 518.348633,473.131470 518.019531,471.489319 517.961792,469.806763 518.030640,468.809509 518.088135,467.786682 518.124756,466.747437 518.130493,465.700745 518.095825,464.655640 518.010742,463.621338 517.865356,462.606812 517.650146,461.621155 517.355225,460.673462 516.970825,459.772705 516.487061,458.927979 515.894165,458.148438 514.823242,457.046692 513.666016,456.072998 512.440063,455.240356 511.163208,454.561890 509.853027,454.050537 508.527100,453.719360 507.203003,453.581421 505.898560,453.649841 504.631104,453.937622 503.418579,454.457642 502.278320,455.223145 501.228149,456.247131 500.933105,456.646484 500.636353,457.148560 500.344482,457.734680 500.063843,458.385864 499.800781,459.083496 499.561523,459.808838 499.352417,460.543030 499.179810,461.267456 499.049927,461.963135 498.969482,462.611511 498.944336,463.193726 498.981079,463.691040 499.256348,464.572693 499.803467,465.730652 500.570801,467.108826 501.507446,468.651062 502.561768,470.301086 503.682617,472.002869 504.818726,473.700134 505.918823,475.336731 506.931396,476.856445 507.805298,478.203064 508.489136,479.320435 508.931641,480.152344 509.121826,480.625122 509.331665,481.230164 509.552734,481.941406 509.776733,482.733032 509.995728,483.578918 510.201660,484.453125 510.385986,485.329712 510.540649,486.182617 510.657593,486.985840 510.728516,487.713501 510.745239,488.339478 510.699585,488.837952 510.507446,489.538391 510.219238,490.207153 509.844971,490.841980 509.394653,491.440796 508.878052,492.001221 508.305176,492.521057 507.686035,492.998047 507.030396,493.429993 506.348389,493.814575 505.650024,494.149536 504.945068,494.432861 504.243530,494.662048 503.872314,494.761108 503.488403,494.853149 503.097290,494.943359 502.703857,495.036621 502.313232,495.137817 501.930908,495.252014 501.561768,495.384094 501.211182,495.539001 500.884399,495.721802 500.586426,495.937256 500.322510,496.190491 500.097900,496.486389 499.922485,496.948364 499.862915,497.545288 499.900635,498.251343 500.017456,499.040649 500.195068,499.887451 500.415161,500.765808 500.659424,501.649963 500.909424,502.514038 501.147095,503.332214 501.354004,504.078552 501.511719,504.727234 501.602051,505.252563 501.568970,506.045837 501.333496,506.958984 500.927856,507.965820 500.384277,509.040100 499.735107,510.155579 499.012329,511.286011 498.248169,512.405273 497.474976,513.487061 496.724731,514.505188 496.029785,515.433350 495.422363,516.245483 494.934570,516.915222 493.834961,518.429199 492.848145,519.698730 491.942383,520.773865 491.085815,521.704712 490.246460,522.541504 489.392456,523.334229 488.491943,524.132996 487.513184,524.988037 486.424194,525.949219 485.193115,527.066956 483.787964,528.391113 482.177246,529.971802 481.945129,530.204407 481.460327,530.365723 480.769775,530.495361 479.920288,530.633301 478.958923,530.819153 477.932556,531.092834 476.888123,531.493958 475.872620,532.062378 474.932922,532.838013 474.116028,533.860352 473.468750,535.169373 473.038086,536.804749 473.154358,538.249878 473.429993,539.509155 473.845154,540.600342 474.380310,541.541504 475.015991,542.350342 475.732300,543.044800 476.509705,543.642822 477.328674,544.162231 478.169495,544.620850 479.012512,545.036804 479.838013,545.427734 480.626526,545.811646 481.296448,546.044189 481.825867,546.179443 482.230774,546.231995 482.526672,546.216797 482.729248,546.148621 482.854431,546.042236 482.917847,545.912415 482.935303,545.774048 482.922546,545.641846 482.895203,545.530701 482.869141,545.455322 482.860474,545.431824" />
			</g>
		</g>
	</g>
</svg>
