<?xml version="1.0" encoding="UTF-8"?>
<!-- Generator: Blender, SVG Export for Grease Pencil - v1.0 -->
<!DOCTYPE svg PUBLIC "-//W3C//DTD SVG 1.1//EN" "http://www.w3.org/Graphics/SVG/1.1/DTD/svg11.dtd">
<svg version="1.0" x="0px" y="0px" xmlns="http://www.w3.org/2000/svg" width="402px" height="368px" viewBox="0 0 402 368">
	<g id="blender_frame_1">
		<g id="blender_object_layer 3 islands">
			<!--Layer: GP_Layer-->
			<g id="GP_Layer">
				<polyline stroke="#000000" stroke-opacity="1" fill="none" stroke-linecap="round" stroke-width="1" points="200.323303,263.308105 199.108948,263.938263 197.428833,264.544464 195.374207,265.127808 193.036255,265.689392 190.506104,266.230225 187.875000,266.751556 185.234253,267.254364 182.674866,267.739777 180.288208,268.208954 178.165405,268.662872 176.397705,269.102722 175.076233,269.529541 172.997986,270.593964 170.987549,272.022736 169.082642,273.747894 167.321045,275.701447 165.740601,277.815430 164.379089,280.021790 163.274292,282.252625 162.464111,284.439758 161.986267,286.515381 161.878662,288.411316 162.179016,290.059631 162.925293,291.392151 163.209778,292.242493 162.992249,293.397766 162.363953,294.793884 161.416260,296.366760 160.240417,298.052307 158.927795,299.786499 157.569641,301.505188 156.257385,303.144287 155.082214,304.639709 154.135620,305.927307 153.508850,306.943054 153.293274,307.622864 153.250671,310.086365 152.921387,312.751526 152.364075,315.591125 151.637512,318.577820 150.800537,321.684509 149.911804,324.883850 149.030212,328.148560 148.214417,331.451477 147.523254,334.765198 147.015564,338.062500 146.750061,341.316223 146.785645,344.498962 147.432739,346.904846 148.887207,349.161072 151.006714,351.242004 153.648743,353.122009 156.670959,354.775208 159.930969,356.176086 163.286194,357.299011 166.594421,358.118347 169.713135,358.608276 172.499695,358.743225 174.811951,358.497620 176.507263,357.845764 178.950806,356.434387 181.977478,354.922546 185.430542,353.387390 189.153198,351.906189 192.988831,350.556335 196.780579,349.414978 200.371826,348.559448 203.605896,348.066956 206.325989,348.014832 208.375549,348.480286 209.597839,349.540527 209.836121,351.273010 209.888123,351.305603 210.031982,351.395630 210.249146,351.531677 210.521484,351.702209 210.830505,351.895813 211.157898,352.100891 211.485291,352.305908 211.794312,352.499451 212.066589,352.670044 212.283875,352.806091 212.427673,352.896179 212.479675,352.928772 212.588440,352.863037 212.789429,352.785889 213.064514,352.700012 213.395569,352.608093 213.764343,352.512939 214.152710,352.417053 214.542664,352.323303 214.915894,352.234314 215.254272,352.152832 215.539673,352.081482 215.753967,352.023010 215.878967,351.980164 215.925476,351.935120 216.053955,351.810486 216.248047,351.622253 216.491394,351.386292 216.767517,351.118469 217.059998,350.834839 217.352539,350.551086 217.628723,350.283386 217.872009,350.047424 218.066101,349.859131 218.194641,349.734558 218.241089,349.689453 218.793335,347.488037 219.510742,345.779480 220.420959,344.522400 221.551697,343.675476 222.930664,343.197571 224.585510,343.047241 226.544006,343.183289 228.833740,343.564392 231.482544,344.149231 234.518066,344.896606 237.967957,345.765198 241.860046,346.713684 241.875671,346.726501 241.919128,346.761780 241.984680,346.815186 242.066956,346.882080 242.160217,346.957947 242.259094,347.038391 242.357910,347.118835 242.451233,347.194702 242.533447,347.261597 242.599060,347.315002 242.642456,347.350281 242.658142,347.363098 246.329285,348.979431 249.684448,349.763855 252.741638,349.858521 255.519226,349.405640 258.035278,348.547363 260.308105,347.425964 262.355835,346.183533 264.196838,344.962463 265.849243,343.904785 267.331238,343.152771 268.661255,342.848511 269.857422,343.134216 270.205017,343.092712 270.404907,342.566833 270.522034,341.638000 270.620728,340.387512 270.765930,338.896790 271.022217,337.247131 271.454346,335.519958 272.126892,333.796448 273.104614,332.158020 274.452087,330.686096 276.234131,329.461853 278.515259,328.566711 279.225159,328.840576 279.861267,329.942749 280.491516,331.694275 281.183289,333.916443 282.004639,336.430237 283.023193,339.056885 284.306702,341.617371 285.922913,343.932861 287.939514,345.824402 290.424255,347.112915 293.444824,347.619446 297.068848,347.165222 299.409241,346.102478 301.157471,344.404358 302.411377,342.248596 303.268372,339.813416 303.826233,337.276489 304.182495,334.815857 304.434875,332.609314 304.680847,330.834656 305.018311,329.669861 305.544617,329.292786 306.357544,329.881042 307.554626,331.612854 307.567932,331.624084 307.604797,331.655212 307.660461,331.702209 307.730286,331.761047 307.809570,331.827942 307.893433,331.898743 307.977295,331.969543 308.056580,332.036438 308.126404,332.095337 308.182068,332.142273 308.218872,332.173401 308.232300,332.184631 308.261169,332.184570 308.341064,332.184204 308.461731,332.183716 308.613098,332.183044 308.784790,332.182373 308.966736,332.181580 309.148621,332.180847 309.320374,332.180115 309.471680,332.179504 309.592407,332.179016 309.672302,332.178650 309.701172,332.178528 309.712219,332.168091 309.742676,332.139221 309.788635,332.095642 309.846313,332.041077 309.911682,331.979065 309.980957,331.913391 310.050171,331.847717 310.115601,331.785706 310.173218,331.731140 310.219177,331.687500 310.249573,331.658630 310.260620,331.648254 310.512024,329.561340 311.679504,326.622375 313.597168,323.044128 316.098938,319.039368 319.019287,314.820862 322.192139,310.601501 325.451721,306.593933 328.632385,303.010681 331.568298,300.064514 334.093689,297.967957 336.042969,296.933716 337.250427,297.174255 337.305725,297.140076 337.458496,297.045471 337.689270,296.902710 337.978455,296.723694 338.306824,296.520569 338.654480,296.305298 339.002319,296.090088 339.330566,295.886902 339.619812,295.707947 339.850647,295.565125 340.003418,295.470520 340.058655,295.436401 340.597717,293.658997 341.657043,291.537659 343.137634,289.142334 344.940491,286.543274 346.966553,283.810608 349.116882,281.014465 351.292297,278.224976 353.393921,275.512207 355.322937,272.946320 356.980042,270.597321 358.266479,268.535339 359.083313,266.830475 358.953918,266.277100 358.476685,265.135498 357.754822,263.509705 356.891541,261.503723 355.990173,259.221527 355.153931,256.767120 354.485901,254.244537 354.089417,251.757721 354.067627,249.410614 354.523621,247.307190 355.560852,245.551361 357.282288,244.247040 358.594482,243.326172 359.694702,242.066956 360.625427,240.561554 361.428467,238.902130 362.146240,237.180817 362.820740,235.489777 363.494263,233.921082 364.208923,232.566864 365.006775,231.519287 365.929993,230.870392 367.020935,230.712311 368.321594,231.137177 368.375000,231.154755 368.521179,231.193878 368.738831,231.234283 369.006836,231.255646 369.303833,231.237671 369.608704,231.160095 369.900146,231.002533 370.156982,230.744781 370.358093,230.366425 370.482056,229.847260 370.507812,229.166931 370.414001,228.305145 370.551758,227.701569 370.732910,227.217255 370.957886,226.837006 371.227051,226.545563 371.540894,226.327637 371.899597,226.167999 372.303711,226.051361 372.753723,225.962494 373.249817,225.886078 373.792542,225.806976 374.382263,225.709808 375.019348,225.579407 375.887512,224.648499 376.344055,223.898560 376.453247,223.310516 376.278992,222.865356 375.885315,222.543915 375.336365,222.327209 374.696167,222.196136 374.028748,222.131653 373.398132,222.114685 372.868469,222.126129 372.503601,222.147003 372.367737,222.158203 368.342285,221.954468 365.553162,221.412170 363.847839,220.630035 363.073914,219.706787 363.078918,218.741180 363.710449,217.831970 364.815918,217.077881 366.243103,216.577637 367.839294,216.429962 369.452332,216.733643 370.929688,217.587311 372.118896,219.089813 373.588257,218.725464 374.632874,218.391602 375.318909,218.068542 375.713013,217.736572 375.881531,217.376007 375.891113,216.967072 375.807983,216.490143 375.698669,215.925537 375.629700,215.253448 375.667480,214.454224 375.878418,213.508179 376.328979,212.395630 377.773560,210.155060 378.984497,207.493317 379.953796,204.468323 380.673218,201.138092 381.134644,197.560547 381.330017,193.793610 381.251160,189.895233 380.890076,185.923279 380.238464,181.935730 379.288391,177.990448 378.031616,174.145264 376.460022,170.458160 375.327515,168.288574 374.190247,166.147003 373.108093,164.067627 372.141052,162.084717 371.349182,160.232483 370.792175,158.545135 370.530151,157.056946 370.623108,155.802063 371.130798,154.814667 372.113342,154.129089 373.630554,153.779480 375.742371,153.800079 375.765198,153.710480 375.828125,153.462799 375.923340,153.088715 376.042725,152.619751 376.178040,152.087616 376.321411,151.523804 376.464844,150.960022 376.600281,150.427826 376.719604,149.958923 376.814697,149.584808 376.877747,149.337128 376.900574,149.247589 376.024109,148.080475 375.534546,146.347870 375.394409,144.176575 375.566895,141.693451 376.014771,139.025177 376.701050,136.298615 377.588501,133.640442 378.640198,131.177338 379.818970,129.036133 381.087646,127.343414 382.409363,126.225922 383.746887,125.810394 383.788879,125.772827 383.904846,125.669006 384.080078,125.512146 384.299744,125.315552 384.548950,125.092438 384.813049,124.856079 385.077148,124.619659 385.326294,124.396545 385.545959,124.199951 385.721191,124.043091 385.837158,123.939270 385.879150,123.901703 385.702148,119.633026 386.040833,114.524109 386.768616,108.750824 387.758972,102.489197 388.884949,95.915344 390.020325,89.204895 391.038330,82.533936 391.812378,76.078003 392.216064,70.013000 392.122742,64.514526 391.405945,59.758118 389.939270,55.919556 389.477356,54.966553 389.045654,53.831482 388.649292,52.553711 388.293457,51.172729 387.983337,49.728210 387.723938,48.259460 387.520630,46.806152 387.378296,45.407532 387.302368,44.103333 387.297852,42.932861 387.369812,41.935669 387.523560,41.151306 387.829834,40.436707 388.071838,39.782288 388.242310,39.187622 388.334045,38.651917 388.339722,38.174683 388.251953,37.755127 388.063721,37.392761 387.767639,37.086914 387.356323,36.836975 386.822754,36.642151 386.159485,36.502136 385.359131,36.416016 383.776917,36.203918 382.567688,35.985413 381.708862,35.745728 381.177856,35.470154 380.952148,35.143738 381.008972,34.751770 381.325867,34.279297 381.880127,33.711731 382.649231,33.034119 383.610413,32.231689 384.741150,31.289612 386.018982,30.193115 386.055359,30.164429 386.150696,30.084290 386.283447,29.962158 386.432617,29.807251 386.576965,29.628845 386.695190,29.436218 386.766174,29.238647 386.768494,29.045349 386.681213,28.865784 386.482971,28.709045 386.152588,28.584412 385.668701,28.501282 385.141479,28.403442 384.664917,28.354187 384.237549,28.336609 383.858093,28.333557 383.524902,28.328064 383.236755,28.303040 382.992188,28.241577 382.789795,28.126526 382.628052,27.940857 382.505798,27.667542 382.421448,27.289612 382.373474,26.790100 382.296997,26.316467 382.140625,25.963135 381.920959,25.714966 381.654541,25.556946 381.357666,25.473938 381.046875,25.450867 380.738708,25.472656 380.449646,25.524353 380.196106,25.590759 379.994568,25.656860 379.861572,25.707581 379.813599,25.727844 377.300842,26.824341 375.401306,27.167969 374.092712,26.887390 373.353027,26.111267 373.160217,24.968567 373.491943,23.587952 374.326111,22.098145 375.640564,20.627930 377.413208,19.306091 379.621948,18.261292 382.244446,17.622375 385.258667,17.517944 385.297058,17.515625 385.404358,17.507324 385.568787,17.490601 385.778931,17.463135 386.023010,17.422607 386.289368,17.366516 386.566284,17.292664 386.842285,17.198669 387.105530,17.082153 387.344482,16.940857 387.547302,16.772278 387.702637,16.574219 387.849609,16.337646 388.020020,16.056213 388.190796,15.731567 388.338928,15.364929 388.441223,14.958069 388.474609,14.512329 388.416016,14.029358 388.242310,13.510498 387.930420,12.957336 387.457275,12.371460 386.799744,11.754272 385.934814,11.107300 383.550476,10.177002 380.170959,10.000000 376.010925,10.476746 371.284729,11.508240 366.206787,12.995117 360.991699,14.838074 355.854065,16.937805 351.008179,19.195251 346.668823,21.510864 343.050537,23.785461 340.367859,25.919800 338.835449,27.814453 338.512146,28.434387 338.128113,29.126343 337.703247,29.886841 337.257141,30.712524 336.809570,31.599976 336.380188,32.545532 335.988708,33.546021 335.654785,34.597900 335.398132,35.697693 335.238525,36.842041 335.195496,38.027527 335.288818,39.250732 335.554138,40.433350 335.989563,41.501099 336.558228,42.456299 337.223450,43.301331 337.948242,44.038269 338.695801,44.669617 339.429443,45.197449 340.112183,45.624207 340.707336,45.952209 341.177979,46.183594 341.487366,46.320801 341.598755,46.365967 345.922974,46.196167 348.838501,46.544678 350.482666,47.392517 350.992554,48.720398 350.505371,50.509399 349.158386,52.740356 347.088928,55.394226 344.433899,58.451965 341.330688,61.894470 337.916443,65.702759 334.328430,69.857605 330.703735,74.340088 328.631470,76.729858 326.592651,78.645020 324.594971,80.149597 322.645813,81.307312 320.752808,82.182251 318.923462,82.838257 317.165161,83.339417 315.485657,83.749451 313.892212,84.132385 312.392517,84.552246 310.994019,85.072876 309.704102,85.758301 309.647766,85.815308 309.492004,85.972778 309.256775,86.210754 308.961731,86.508972 308.627075,86.847473 308.272461,87.206055 307.917786,87.564636 307.583130,87.903137 307.288086,88.201416 307.052734,88.439392 306.897034,88.596863 306.840637,88.653870 306.676636,89.197693 306.478821,89.814575 306.264893,90.482605 306.052673,91.179871 305.859802,91.884216 305.704041,92.573853 305.602966,93.226807 305.574585,93.820923 305.636475,94.334412 305.806213,94.745300 306.101868,95.031555 306.540771,95.171265 306.586365,95.165955 306.712402,95.151367 306.902893,95.129272 307.141602,95.101685 307.412537,95.070312 307.699524,95.037109 307.986572,95.003845 308.257446,94.972534 308.496155,94.944885 308.686584,94.922852 308.812622,94.908264 308.858337,94.902954 309.575989,94.663025 310.340332,94.463440 311.123779,94.315125 311.898865,94.229187 312.638123,94.216614 313.314087,94.288391 313.899292,94.455750 314.366211,94.729431 314.687439,95.120728 314.835449,95.640503 314.782715,96.299866 314.501831,97.109802 314.441711,97.157227 314.277344,97.291992 314.032715,97.502930 313.731506,97.778748 313.397766,98.108215 313.055359,98.480103 312.728271,98.883118 312.440186,99.306091 312.215149,99.737671 312.077026,100.166748 312.049744,100.582031 312.157104,100.972168 312.358398,101.342102 312.587585,101.707031 312.831360,102.071167 313.076416,102.438965 313.309204,102.814697 313.516296,103.202820 313.684265,103.607544 313.799622,104.033325 313.849060,104.484436 313.819092,104.965332 313.696289,105.480164 313.467346,106.033447 313.179932,106.566162 312.916321,107.068420 312.658875,107.533630 312.390076,107.955322 312.092468,108.326782 311.748352,108.641449 311.340210,108.892792 310.850525,109.074219 310.261719,109.179108 309.556152,109.200867 308.716492,109.132965 307.724915,108.968842 305.991089,109.078247 304.548096,110.084961 303.413391,111.846588 302.604492,114.221008 302.138794,117.065979 302.033752,120.239227 302.306824,123.598480 302.975403,127.001465 304.057068,130.305908 305.569336,133.369415 307.529541,136.049622 309.955078,138.204224 312.830627,140.446808 315.267334,143.012146 317.240662,145.830597 318.725708,148.832672 319.697632,151.948822 320.131653,155.109558 320.003113,158.245178 319.287170,161.286224 317.958862,164.163055 315.993652,166.806030 313.366577,169.145630 310.052917,171.112213 308.492981,171.599915 306.924133,171.657013 305.353271,171.387665 303.787415,170.896179 302.233521,170.286835 300.698547,169.663940 299.189392,169.131592 297.712891,168.794220 296.276184,168.755981 294.886047,169.121124 293.549561,169.994019 292.273499,171.478790 290.593872,174.195068 289.114441,176.848175 287.783813,179.425446 286.550903,181.914124 285.364319,184.301422 284.172791,186.574738 282.925049,188.721252 281.569885,190.728302 280.055969,192.583069 278.332031,194.272919 276.346680,195.785126 274.048706,197.106903 271.611084,198.012939 268.886292,198.575226 265.956299,198.860718 262.902832,198.936371 259.807434,198.869080 256.751892,198.725861 253.818054,198.573669 251.087463,198.479401 248.641907,198.510071 246.563110,198.732635 244.932739,199.214020 243.832458,200.021179 241.050537,203.338287 238.014465,206.486267 234.790466,209.502258 231.444763,212.423431 228.043640,215.287018 224.653503,218.130249 221.340515,220.990265 218.171143,223.904297 215.211487,226.909607 212.527893,230.043396 210.186768,233.342896 208.254333,236.845337 208.072571,237.847565 208.295349,239.015259 208.848511,240.305756 209.658142,241.676178 210.650024,243.083771 211.750183,244.485748 212.884521,245.839355 213.979004,247.101776 214.959412,248.230225 215.751709,249.181915 216.281860,249.914032 216.475769,250.383789 216.348572,253.159943 216.013916,255.648285 215.467712,257.842560 214.705566,259.736298 213.723267,261.323242 212.516479,262.596985 211.081055,263.551208 209.412537,264.179626 207.506775,264.475830 205.359497,264.433533 202.966431,264.046387 200.455505,263.345001" />
				<polygon stroke="#000000" stroke-opacity="1" fill="none" stroke-linecap="round" stroke-width="1" points="13.857788,198.818085 14.409973,199.321716 14.789856,199.805145 15.032104,200.274750 15.171082,200.737061 15.241577,201.198608 15.278076,201.665863 15.315186,202.145294 15.387451,202.643463 15.529419,203.166840 15.775696,203.721893 16.160828,204.315125 16.719482,204.953094 17.097351,205.231171 17.536926,205.389252 18.032654,205.444977 18.578979,205.416107 19.170471,205.320282 19.801331,205.175262 20.466187,204.998749 21.159424,204.808411 21.875488,204.621979 22.608826,204.457184 23.353943,204.331635 24.105103,204.263153 24.892944,204.397583 25.552856,204.903961 26.105591,205.716766 26.572083,206.770569 26.973083,207.999878 27.329224,209.339203 27.661316,210.723053 27.990234,212.085938 28.336609,213.362396 28.721313,214.486877 29.165100,215.393951 29.688782,216.018066 31.069519,216.950867 32.588562,217.700714 34.211121,218.310516 35.902527,218.823181 37.627747,219.281586 39.352173,219.728607 41.040955,220.207214 42.659302,220.760284 44.172546,221.430695 45.545715,222.261383 46.744141,223.295227 47.733032,224.575195 48.742981,226.306946 49.769897,228.061493 50.823181,229.820709 51.912354,231.566254 53.046814,233.279907 54.236084,234.943329 55.489502,236.538330 56.816650,238.046600 58.226990,239.449829 59.729919,240.729797 61.334900,241.868225 63.051392,242.846802 65.776978,243.853638 68.546143,244.326416 71.324707,244.304626 74.078308,243.827698 76.772644,242.935120 79.373535,241.666412 81.846680,240.061096 84.157776,238.158630 86.272583,235.998535 88.156799,233.620300 89.776306,231.063477 91.096741,228.367462 91.643555,227.035767 92.235168,225.575714 92.876526,224.035339 93.572388,222.462677 94.327515,220.905731 95.146912,219.412567 96.035217,218.031219 96.997314,216.809723 98.038025,215.796021 99.162109,215.038239 100.374451,214.584320 101.679871,214.482300 102.376465,214.675842 102.895020,215.099976 103.261108,215.720367 103.500427,216.502655 103.638428,217.412567 103.700806,218.415680 103.713074,219.477661 103.700928,220.564178 103.689880,221.640869 103.705505,222.673401 103.773438,223.627350 103.919312,224.468445 104.744019,226.429718 105.994629,227.883179 107.605042,228.867981 109.509094,229.423065 111.640747,229.587555 113.933777,229.400513 116.322083,228.901001 118.739624,228.128082 121.120117,227.120880 123.397461,225.918396 125.505676,224.559784 127.378540,223.084106 128.206787,222.244507 128.833801,221.454193 129.301819,220.705780 129.653076,219.992004 129.929810,219.305542 130.174255,218.639038 130.428711,217.985199 130.735352,217.336731 131.136536,216.686279 131.674255,216.026581 132.391052,215.350250 133.328979,214.650024 133.448853,214.566772 133.592896,214.466461 133.758301,214.353363 133.942200,214.231842 134.141846,214.106140 134.354248,213.980560 134.576599,213.859436 134.806152,213.747040 135.039917,213.647766 135.275146,213.565796 135.508972,213.505524 135.738525,213.471222 136.008667,213.471008 136.255249,213.478302 136.481018,213.493317 136.688721,213.516357 136.881165,213.547729 137.061035,213.587677 137.231201,213.636536 137.394287,213.694580 137.553223,213.762115 137.710693,213.839386 137.869446,213.926758 138.032288,214.024445 138.215637,214.156036 138.435730,214.317993 138.684021,214.505157 138.951965,214.712311 139.231079,214.934265 139.512634,215.165771 139.788330,215.401672 140.049438,215.636719 140.287537,215.865784 140.493958,216.083557 140.660339,216.284912 140.777954,216.464630 141.378845,217.628876 142.053406,218.965546 142.806519,220.403748 143.643372,221.872772 144.568909,223.301727 145.588196,224.619904 146.706238,225.756409 147.928040,226.640442 149.258667,227.201233 150.703064,227.367920 152.266296,227.069702 153.953308,226.235779 154.300537,225.912872 154.639404,225.430389 154.977417,224.828583 155.321899,224.147705 155.680359,223.427979 156.060242,222.709747 156.468994,222.033173 156.914062,221.438538 157.402893,220.966064 157.942871,220.656067 158.541504,220.548737 159.206238,220.684387 161.269592,221.619080 162.631897,222.553864 163.419067,223.484344 163.757446,224.406097 163.772827,225.314789 163.591492,226.205994 163.339417,227.075287 163.142822,227.918304 163.127563,228.730682 163.419922,229.507996 164.145874,230.245850 165.431641,230.939880 166.086548,231.165344 166.787109,231.361389 167.515991,231.548157 168.255981,231.745789 168.989807,231.974457 169.700195,232.254211 170.369873,232.605255 170.981567,233.047699 171.518005,233.601685 171.961975,234.287323 172.296082,235.124817 172.503174,236.134247 172.701904,238.335449 172.730957,240.118683 172.600952,241.537109 172.322815,242.643890 171.907288,243.492279 171.365295,244.135468 170.707520,244.626678 169.944885,245.019073 169.088135,245.365936 168.148132,245.720428 167.135559,246.135742 166.061401,246.665192 165.012268,247.207886 164.047546,247.660217 163.154907,248.045990 162.322083,248.389130 161.536987,248.713379 160.787292,249.042694 160.060791,249.400848 159.345215,249.811707 158.628418,250.299133 157.898010,250.886993 157.141907,251.599060 156.347778,252.459229 154.754883,254.521423 153.278076,256.734863 151.881775,259.051636 150.530151,261.423798 149.187561,263.803467 147.818298,266.142731 146.386475,268.393616 144.856506,270.508179 143.192627,272.438446 141.359009,274.136536 139.320068,275.554443 137.040039,276.644226 135.722473,277.230530 134.482971,277.982056 133.323730,278.881165 132.246948,279.910095 131.254761,281.050964 130.349365,282.286194 129.532959,283.597900 128.807678,284.968445 128.175781,286.379944 127.639343,287.814758 127.200684,289.255127 126.862000,290.683289 126.786621,291.448669 126.786926,292.335938 126.839600,293.314941 126.921448,294.355652 127.009094,295.428040 127.079224,296.502014 127.108643,297.547546 127.073914,298.534485 126.951904,299.432800 126.719177,300.212463 126.352539,300.843323 125.828613,301.295471 125.746826,301.341003 125.519958,301.453552 125.175842,301.596863 124.742371,301.734436 124.247131,301.830261 123.718079,301.847778 123.183044,301.750793 122.669739,301.503113 122.205994,301.068298 121.819580,300.410095 121.538452,299.492249 121.390259,298.278503 121.383240,297.028259 121.480469,295.849304 121.653687,294.736877 121.874329,293.686218 122.114075,292.692444 122.344482,291.750732 122.537170,290.856262 122.663696,290.004272 122.695740,289.189880 122.604797,288.408386 122.362549,287.654846 121.940552,286.924500 121.319824,286.212830 120.598389,285.618164 119.789978,285.130432 118.908142,284.739868 117.966492,284.436462 116.978638,284.210388 115.958008,284.051575 114.918457,283.950256 113.873352,283.896362 112.836426,283.880127 111.821106,283.891541 110.841187,283.920715 110.395569,283.874084 109.882568,283.718201 109.317139,283.470398 108.714417,283.147888 108.089539,282.767883 107.457520,282.347595 106.833496,281.904297 106.232605,281.455261 105.669739,281.017639 105.160278,280.608765 104.719116,280.245789 104.361450,279.945984 103.884521,279.437683 103.506653,278.829651 103.205627,278.146179 102.959534,277.411560 102.746094,276.650085 102.543274,275.886017 102.328918,275.143646 102.080933,274.447205 101.777222,273.821014 101.395630,273.289337 100.914124,272.876404 100.310547,272.606537 98.669983,272.260529 96.962769,272.104248 95.212891,272.129669 93.444580,272.329010 91.681763,272.694397 89.948547,273.217896 88.269043,273.891632 86.667419,274.707764 85.167603,275.658417 83.793762,276.735687 82.569885,277.931702 81.520203,279.238586 80.773254,280.524231 80.038574,282.156128 79.304321,284.050232 78.559082,286.122314 77.791077,288.288269 76.988708,290.463989 76.140564,292.565247 75.234802,294.507812 74.259827,296.207581 73.204163,297.580322 72.056091,298.541870 70.804077,299.007996 70.062927,299.076294 69.298950,299.098328 68.519775,299.090149 67.733215,299.067444 66.946838,299.046326 66.168274,299.042603 65.405334,299.072205 64.665710,299.151184 63.956970,299.295349 63.286926,299.520569 62.663208,299.842957 62.093445,300.278259 61.521912,300.996704 60.913391,302.078491 60.278503,303.453552 59.627930,305.051697 58.972351,306.802734 58.322449,308.636597 57.689087,310.483093 57.082642,312.272034 56.514099,313.933228 55.994019,315.396545 55.533142,316.591736 55.142151,317.448792 54.523132,318.529907 53.866333,319.518250 53.171021,320.402954 52.436584,321.173035 51.662109,321.817627 50.846924,322.325745 49.990417,322.686523 49.091675,322.889099 48.150146,322.922424 47.165100,322.775696 46.135681,322.437927 45.061279,321.898254 44.060913,321.070129 42.887451,319.716370 41.583191,317.935181 40.190674,315.824646 38.752258,313.482849 37.310486,311.008118 35.907837,308.498352 34.586670,306.051758 33.389465,303.766418 32.358704,301.740417 31.536682,300.071899 30.966064,298.858704 28.796814,293.600220 26.737488,288.276917 24.789124,282.895325 22.953125,277.461945 21.230713,271.983124 19.623230,266.465393 18.131836,260.915161 16.757935,255.338867 15.502747,249.742981 14.367493,244.134003 13.353455,238.518280 12.462097,232.902313 12.302979,231.559357 12.089600,229.643341 11.835876,227.268829 11.555298,224.550323 11.261902,221.602386 10.969299,218.539429 10.691284,215.476044 10.441528,212.526642 10.233948,209.805695 10.082214,207.427643 10.000000,205.506897 10.001221,204.157867 10.079285,203.300446 10.209473,202.456421 10.389526,201.644287 10.616882,200.882507 10.889282,200.189575 11.204468,199.583923 11.559814,199.084076 11.953064,198.708466 12.381897,198.475586 12.843872,198.403900 13.336609,198.511932 13.831726,198.802765" />
				<polyline stroke="#000000" stroke-opacity="1" fill="none" stroke-linecap="round" stroke-width="1" points="200.323303,263.308105 200.356262,263.288116 200.386658,263.273163 200.414551,263.263245 200.440125,263.258453 200.463440,263.258698 200.484558,263.264099 200.503662,263.274689 200.520752,263.290497 200.536072,263.311554 200.549622,263.337891 200.561523,263.369568 200.571350,263.404755" />
			</g>
		</g>
	</g>
	<g id="blender_frame_1">
		<g id="blender_object_cutouts for layers 2-3">
			<!--Layer: GP_Layer-->
			<g id="GP_Layer">
				<polygon stroke="#000000" stroke-opacity="1" fill="none" stroke-linecap="round" stroke-width="1" points="365.724915,109.483093 364.672180,111.893646 363.196411,113.882172 361.380615,115.446503 359.308228,116.584320 357.062439,117.293518 354.726501,117.571838 352.383789,117.417053 350.117493,116.826965 348.011047,115.799469 346.147461,114.332336 344.610229,112.423340 343.482605,110.070374 343.068115,108.625763 342.810303,107.170715 342.705017,105.718811 342.748413,104.283325 342.936401,102.877869 343.264954,101.515808 343.730103,100.210571 344.327759,98.975647 345.054077,97.824463 345.904846,96.770447 346.876343,95.827087 347.964355,95.007874 350.414062,93.751953 352.882324,93.106140 355.310669,93.021790 357.640625,93.450073 359.813721,94.342163 361.771667,95.649536 363.455750,97.323181 364.807800,99.314697 365.769226,101.575134 366.281494,104.055847 366.286194,106.708069 365.752930,109.344360" />
				<polygon stroke="#000000" stroke-opacity="1" fill="none" stroke-linecap="round" stroke-width="1" points="313.119324,250.633179 313.116699,252.881378 312.757751,254.988831 312.077209,256.928528 311.109436,258.673340 309.888916,260.196259 308.450317,261.470245 306.828186,262.468201 305.056885,263.163086 303.171204,263.527863 301.205505,263.535461 299.194458,263.158875 297.172546,262.371033 295.624878,261.415161 294.309204,260.240265 293.228271,258.881012 292.384705,257.372040 291.781311,255.747986 291.420715,254.043488 291.305603,252.293152 291.438660,250.531647 291.822693,248.793610 292.460205,247.113617 293.354065,245.526306 294.506836,244.066315 296.161072,242.620392 297.978455,241.601044 299.904175,240.989014 301.884033,240.765015 303.863220,240.909790 305.787292,241.404114 307.601685,242.228729 309.251953,243.364441 310.683289,244.791962 311.841431,246.492065 312.671631,248.445557 313.096985,250.523804" />
				<polygon stroke="#000000" stroke-opacity="1" fill="none" stroke-linecap="round" stroke-width="1" points="134.675598,255.118195 133.618286,257.533203 132.138062,259.525421 130.318298,261.092621 128.242188,262.232605 125.993225,262.943085 123.654724,263.221893 121.310059,263.066864 119.042542,262.475708 116.935669,261.446289 115.072693,259.976410 113.536987,258.063873 112.411804,255.706543 111.999146,254.259369 111.743164,252.801758 111.639954,251.347137 111.685486,249.909119 111.875732,248.501038 112.206543,247.136414 112.674011,245.828735 113.274109,244.591492 114.002747,243.438141 114.855957,242.382111 115.829651,241.436981 116.919861,240.616150 119.373718,239.357819 121.845154,238.710785 124.275818,238.626221 126.607300,239.055237 128.781067,239.949036 130.738892,241.258789 132.422180,242.935669 133.772522,244.930847 134.731567,247.195496 135.240662,249.680847 135.241516,252.338043 134.703918,254.979187" />
				<polygon stroke="#000000" stroke-opacity="1" fill="none" stroke-linecap="round" stroke-width="1" points="185.576477,334.342834 184.519531,336.760315 183.039307,338.754517 181.219116,340.323303 179.142395,341.464417 176.892578,342.175598 174.552979,342.454712 172.207153,342.299500 169.938354,341.707764 167.829956,340.677307 165.965515,339.205933 164.428345,337.291504 163.301758,334.931824 162.888367,333.483093 162.631836,332.023987 162.528076,330.567932 162.573120,329.128479 162.763000,327.719055 163.093567,326.353088 163.560852,325.044128 164.160767,323.805603 164.889465,322.651184 165.742737,321.594055 166.716675,320.647949 167.807129,319.826172 170.261902,318.566711 172.734497,317.919189 175.166382,317.834534 177.499146,318.264038 179.674377,319.158752 181.633606,320.469788 183.318237,322.148254 184.669922,324.145447 185.630066,326.412292 186.140198,328.900085 186.141846,331.559875 185.604797,334.203735" />
			</g>
		</g>
	</g>
</svg>
