<?xml version="1.0" encoding="UTF-8"?>
<!-- Generator: Blender, SVG Export for Grease Pencil - v1.0 -->
<!DOCTYPE svg PUBLIC "-//W3C//DTD SVG 1.1//EN" "http://www.w3.org/Graphics/SVG/1.1/DTD/svg11.dtd">
<svg version="1.0" x="0px" y="0px" xmlns="http://www.w3.org/2000/svg" width="138px" height="196px" viewBox="0 0 138 196">
	<g id="blender_frame_1">
		<g id="blender_object_layer 4 island">
			<!--Layer: GP_Layer-->
			<g id="GP_Layer">
				<polygon stroke="#000000" stroke-opacity="1" fill="none" stroke-linecap="round" stroke-width="1" points="78.828796,104.414368 78.239929,106.542358 77.338867,108.439545 76.166626,110.089752 74.763916,111.476776 73.171814,112.584534 71.430969,113.396790 69.582397,113.897430 67.666870,114.070282 65.725464,113.899231 63.798950,113.368103 61.928101,112.460754 60.153931,111.161072 58.887878,109.832184 57.906128,108.359467 57.202332,106.776489 56.769958,105.116730 56.602722,103.413818 56.694153,101.701202 57.037903,100.012421 57.627502,98.381012 58.456787,96.840546 59.519104,95.424469 60.808167,94.166321 62.317566,93.099609 64.314270,92.183533 66.359497,91.716003 68.404724,91.663849 70.401550,91.993866 72.301636,92.672943 74.056763,93.667877 75.618225,94.945557 76.937744,96.472809 77.967041,98.216431 78.657532,100.143372 78.960999,102.220398 78.835388,104.304657" />
				<polyline stroke="#000000" stroke-opacity="1" fill="none" stroke-linecap="round" stroke-width="1" points="18.170471,126.225769 18.468567,125.485382 18.663147,125.001984 18.768982,124.738892 18.800964,124.659363 18.773865,124.726654 18.702454,124.904083 18.601501,125.154968 18.485718,125.442566 18.369934,125.730133 18.268982,125.981018 18.197571,126.158478 18.170471,126.225769 18.510437,125.333740 18.810791,124.433807 19.056091,123.546997 19.230835,122.694366 19.319641,121.896851 19.307190,121.175476 19.177917,120.551270 18.916443,120.045166 18.507324,119.678162 17.935242,119.471375 17.184692,119.445648 16.240173,119.622131 14.532593,120.956879 13.162720,121.442230 12.094666,121.217987 11.292175,120.423889 10.719299,119.199738 10.339905,117.685364 10.117859,116.020508 10.017151,114.344940 10.001648,112.798492 10.035217,111.520844 10.081848,110.651794 10.105408,110.331024 10.731018,109.197479 11.430542,108.265808 12.195862,107.500214 13.018677,106.865051 13.890808,106.324615 14.804016,105.843109 15.750061,105.384918 16.720764,104.914276 17.707886,104.395508 18.703247,103.792816 19.698486,103.070557 20.685425,102.193054 21.165649,101.582672 21.493530,100.888000 21.698853,100.125244 21.811462,99.310730 21.861145,98.460693 21.877930,97.591461 21.891541,96.719238 21.931824,95.860352 22.028748,95.031067 22.212036,94.247681 22.511658,93.526367 22.957336,92.883514 24.045837,91.497009 25.043457,90.049164 25.964050,88.549194 26.821289,87.006348 27.629150,85.429810 28.401306,83.828888 29.151733,82.212769 29.894104,80.590698 30.642334,78.971893 31.410095,77.365601 32.211365,75.781036 33.059875,74.227448 33.789856,73.187561 34.764160,72.086731 35.923035,70.934540 37.206543,69.740570 38.554749,68.514343 39.908020,67.265472 41.206299,66.003540 42.389954,64.738129 43.399109,63.478729 44.173767,62.235016 44.654297,61.016510 44.780701,59.832794 44.776733,58.459503 45.004883,57.434906 45.425354,56.699524 45.997986,56.193878 46.683105,55.858459 47.440735,55.633728 48.231079,55.460297 49.014038,55.278534 49.749878,55.029053 50.398682,54.652313 50.920471,54.088837 51.275391,53.279175 51.526978,52.545593 51.858887,51.896820 52.265015,51.330597 52.738831,50.844666 53.274292,50.436737 53.865051,50.104553 54.504761,49.845856 55.187256,49.658386 55.906311,49.539917 56.655457,49.488068 57.428589,49.500702 58.219421,49.575531 59.206177,49.902527 59.976196,50.295837 60.554504,50.737396 60.965942,51.209167 61.235596,51.693054 61.388367,52.171051 61.449158,52.625031 61.442993,53.036987 61.394775,53.388824 61.329407,53.662537 61.271973,53.839966 61.247192,53.903137 61.819397,54.691071 62.508545,55.402405 63.287842,56.023560 64.130676,56.540924 65.010559,56.940918 65.900696,57.209900 66.774475,57.334320 67.605286,57.300507 68.366455,57.094879 69.031250,56.703857 69.573242,56.113831 69.965637,55.311218 70.156616,54.677826 70.333740,53.987213 70.501831,53.251953 70.666382,52.484619 70.832581,51.697815 71.005310,50.904144 71.190002,50.116119 71.391602,49.346344 71.615540,48.607422 71.866760,47.911957 72.150513,47.272461 72.471985,46.701538 73.292847,45.551880 74.389648,44.214264 75.694946,42.723206 77.141174,41.113068 78.661011,39.418335 80.187134,37.673370 81.651855,35.912689 82.988037,34.170776 84.127991,32.481934 85.004578,30.880615 85.550110,29.401276 85.697388,28.078369 85.711914,26.641022 85.982056,25.556763 86.486084,24.783569 87.201904,24.279297 88.107483,24.001862 89.180969,23.909271 90.400391,23.959412 91.743835,24.110199 93.189209,24.319611 94.714661,24.545532 96.298157,24.745911 97.917786,24.878723 98.759216,24.863434 99.590515,24.752533 100.387939,24.559021 101.128052,24.295959 101.787354,23.976288 102.342041,23.613068 102.768921,23.219299 103.044250,22.807922 103.144409,22.392029 103.046143,21.984589 102.725586,21.598663 102.159363,21.247162 101.475586,20.945618 100.987122,20.545715 100.667908,20.071167 100.492249,19.545715 100.434082,18.993134 100.467712,18.437134 100.567139,17.901520 100.706482,17.410034 100.860046,16.986389 101.001648,16.654419 101.105652,16.437775 101.145996,16.360321 102.275818,14.726471 103.589050,13.342957 105.066406,12.204590 106.688843,11.306183 108.436951,10.642731 110.291382,10.209045 112.233093,10.000000 114.242554,10.010559 116.300720,10.235504 118.388184,10.669800 120.485779,11.308319 122.574097,12.145935 123.930481,12.811340 124.883606,13.451630 125.487976,14.060516 125.797913,14.631836 125.867859,15.159363 125.752075,15.636749 125.504944,16.057861 125.180847,16.416443 124.834167,16.706146 124.519226,16.920807 124.290344,17.054230 124.202026,17.100037 123.039001,17.330688 122.125183,17.648529 121.453674,18.036041 121.017639,18.475708 120.810364,18.949951 120.825012,19.441223 121.054749,19.931946 121.492737,20.404602 122.132080,20.841675 122.966064,21.225494 123.987915,21.538605 125.190735,21.763458 125.212952,21.783752 125.274170,21.839813 125.366699,21.924500 125.482666,22.030701 125.614319,22.151184 125.753784,22.278839 125.893188,22.406494 126.024841,22.526978 126.140808,22.633179 126.233337,22.717865 126.294617,22.773987 126.316772,22.794220 127.263550,24.416962 127.905579,26.263550 128.264404,28.275574 128.361450,30.394592 128.217896,32.562042 127.855225,34.719513 127.294678,36.808502 126.557678,38.770477 125.665649,40.546967 124.639893,42.079468 123.501709,43.309418 122.272644,44.178345 121.887573,44.617462 121.410095,45.523041 120.865356,46.810303 120.278748,48.394318 119.675476,50.190155 119.080627,52.113007 118.519653,54.077911 118.017639,56.000031 117.599854,57.794403 117.291626,59.376160 117.118103,60.660309 117.104614,61.562012 117.278748,63.507477 117.366516,65.456665 117.377686,67.408752 117.322266,69.363068 117.210388,71.318878 117.051880,73.275482 116.856750,75.232117 116.635010,77.188080 116.396545,79.142639 116.151550,81.095062 115.909790,83.044647 115.681274,84.990662 115.399780,85.885071 114.813660,86.720093 113.972046,87.499756 112.924072,88.227814 111.718933,88.908295 110.405945,89.544983 109.034119,90.141846 107.652771,90.702759 106.311035,91.231628 105.058105,91.732361 103.943298,92.208801 103.015625,92.664948 101.976257,93.467041 101.064514,94.589081 100.272217,95.977814 99.591248,97.580048 99.013428,99.342529 98.530334,101.211975 98.134033,103.135193 97.816040,105.058960 97.568359,106.929962 97.382690,108.695007 97.250793,110.300781 97.164551,111.694031 96.854797,112.837311 96.098511,114.014252 94.974670,115.214355 93.562195,116.427094 91.939941,117.641846 90.186951,118.848053 88.382141,120.035217 86.604431,121.192780 84.932861,122.310120 83.446289,123.376740 82.223755,124.382080 81.344299,125.315552 80.749084,126.376526 80.237244,127.790497 79.800354,129.490234 79.430237,131.408569 79.118774,133.478333 78.857666,135.632263 78.638855,137.803223 78.454224,139.923950 78.295349,141.927368 78.154175,143.746033 78.022522,145.312866 77.892212,146.560669 77.441345,148.240479 76.547852,149.994751 75.281006,151.796753 73.709900,153.619507 71.903748,155.436279 69.931702,157.220093 67.862854,158.944275 65.766479,160.581848 63.711731,162.105957 61.767761,163.489746 60.003845,164.706482 58.488953,165.729187 55.715515,167.372314 52.851501,168.766113 49.924988,169.972168 46.964355,171.051575 43.997864,172.065796 41.053711,173.076172 38.160278,174.143982 35.345581,175.330627 32.638184,176.697449 30.066101,178.305786 27.657593,180.217041 25.440979,182.492554 23.479492,184.514709 21.651428,185.813843 19.956238,186.479126 18.393616,186.599487 16.962952,186.264038 15.663940,185.561890 14.496033,184.582031 13.458801,183.413757 12.551758,182.145935 11.774414,180.867798 11.126343,179.668213 10.607056,178.636475 10.143127,177.339905 10.000000,176.174805 10.124207,175.137573 10.462341,174.224670 10.960876,173.432495 11.566467,172.757446 12.225525,172.196045 12.884583,171.744690 13.490295,171.399841 13.989136,171.157959 14.327637,171.015381 14.452332,170.968628 15.654236,170.789062 16.708496,170.461304 17.603882,170.008850 18.328918,169.454834 18.872009,168.822632 19.221802,168.135498 19.366699,167.416687 19.295593,166.689453 18.996643,165.977173 18.458679,165.303101 17.670044,164.690430 16.619385,164.162476 15.959351,163.963257 15.580200,163.631897 15.439270,163.196960 15.494019,162.686890 15.701843,162.130249 16.020203,161.555359 16.406372,160.990845 16.817932,160.465027 17.212036,160.006592 17.546326,159.643799 17.778198,159.405212 17.864868,159.319397 19.056458,158.183228 20.046265,157.076538 20.843994,155.966064 21.459473,154.818542 21.902588,153.600586 22.183105,152.278870 22.310852,150.820068 22.295593,149.190857 22.147156,147.357910 21.875427,145.287903 21.490173,142.947571 21.001221,140.303589 19.118164,138.528259 17.766113,136.788208 16.875366,135.105652 16.376709,133.502808 16.200623,132.002075 16.277710,130.625732 16.538574,129.395874 16.913818,128.335022 17.334045,127.465271 17.729858,126.808990 18.031799,126.388397 18.170471,126.225769 18.167969,126.227783 18.161072,126.233063 18.151428,126.240509 18.140320,126.249023 18.129150,126.257599 18.119568,126.265076 18.112671,126.270325 18.110107,126.272339 18.113098,126.269958 18.123291,126.262146 18.141907,126.247772 18.169067,126.226868" />
			</g>
		</g>
	</g>
</svg>
