<?xml version="1.0" encoding="UTF-8"?>
<!-- Generator: Blender, SVG Export for Grease Pencil - v1.0 -->
<!DOCTYPE svg PUBLIC "-//W3C//DTD SVG 1.1//EN" "http://www.w3.org/Graphics/SVG/1.1/DTD/svg11.dtd">
<svg version="1.0" x="0px" y="0px" xmlns="http://www.w3.org/2000/svg" width="456px" height="428px" viewBox="0 0 456 428">
	<g id="blender_frame_1">
		<g id="blender_object_layer 2 island">
			<!--Layer: GP_Layer-->
			<g id="GP_Layer">
				<polyline stroke="#000000" stroke-opacity="1" fill="none" stroke-linecap="round" stroke-width="1" points="10.568176,215.667358 15.358398,215.634094 19.105103,215.737854 22.048584,216.093414 24.429138,216.815582 26.487183,218.019165 28.463013,219.818939 30.597046,222.329834 33.129700,225.666656 36.301331,229.944397 40.352478,235.277954 45.523682,241.782379 52.055603,249.572845 56.229980,253.250916 60.152283,254.741302 63.849426,254.437683 67.348755,252.733948 70.677429,250.023987 73.862671,246.701752 76.931824,243.161072 79.912109,239.795807 82.830994,236.999634 85.715820,235.166321 88.593872,234.689453 91.492676,235.962860 94.172424,237.420715 96.985657,237.805878 99.863159,237.298828 102.735718,236.080048 105.533936,234.329865 108.188782,232.228882 110.630920,229.957458 112.791199,227.696075 114.600525,225.625092 115.989624,223.924927 116.889404,222.776001 117.230713,222.358612 119.883972,223.147919 122.186218,223.979614 124.172852,224.865234 125.879272,225.816284 127.340820,226.844208 128.592773,227.960480 129.670593,229.176605 130.609619,230.504120 131.445190,231.954437 132.212646,233.539124 132.947449,235.269623 133.684875,237.157471 134.546143,238.897888 135.757690,240.557098 137.280579,242.106934 139.075745,243.519470 141.104126,244.766510 143.326843,245.819977 145.704651,246.651855 148.198669,247.234039 150.769836,247.538483 153.379089,247.537048 155.987305,247.201691 158.555542,246.504395 161.207458,245.473694 163.794373,244.310364 166.320190,243.025574 168.789001,241.630554 171.204773,240.136566 173.571533,238.554840 175.893311,236.896606 178.174072,235.173096 180.417847,233.395477 182.628662,231.575073 184.810486,229.723053 186.967346,227.850677 187.211182,227.335541 187.259827,226.476135 187.167419,225.340118 186.987915,223.995026 186.775269,222.508514 186.583435,220.948212 186.466431,219.381622 186.478271,217.876404 186.672852,216.500153 187.104248,215.320465 187.826355,214.404877 188.893127,213.820953 193.084839,212.820679 196.473511,212.492340 199.182739,212.681915 201.336182,213.235413 203.057495,213.998810 204.470154,214.818176 205.697754,215.539490 206.864014,216.008759 208.092346,216.072021 209.506470,215.575134 211.229858,214.364258 213.386169,212.285370 214.006409,210.901306 214.251099,208.669006 214.213257,205.744934 213.985779,202.285461 213.661804,198.447113 213.334167,194.386169 213.095825,190.259094 213.039734,186.222198 213.258972,182.431763 213.846313,179.044098 214.894775,176.215515 216.497192,174.102112 221.026428,170.377014 225.662292,167.323273 230.267578,164.738525 234.704712,162.420410 238.836304,160.166626 242.525024,157.774780 245.633362,155.042603 248.023865,151.767822 249.559082,147.748260 250.101685,142.781647 249.514221,136.666077 247.659363,129.199402 247.244812,126.411621 247.413147,122.696045 248.156006,118.267883 249.465027,113.342224 251.331909,108.134094 253.748108,102.858582 256.705444,97.730835 260.195312,92.965576 264.209534,88.777649 268.739868,85.382080 273.777771,82.993530 279.315430,81.826965 283.441711,80.820312 287.247131,78.596619 290.722656,75.390686 293.859680,71.437073 296.649170,66.970459 299.082336,62.225403 301.150574,57.436401 302.845093,52.837891 304.157104,48.664429 305.077820,45.150269 305.598633,42.529785 305.710754,41.037231 305.420593,35.889893 305.824585,31.554688 306.865234,28.002808 308.485107,25.205444 310.626892,23.133728 313.233032,21.758728 316.246216,21.051636 319.609070,20.983765 323.264282,21.526306 327.154419,22.650452 331.222107,24.327576 335.410095,26.528809 337.680664,27.428162 339.421570,27.414124 340.744019,26.636963 341.759094,25.247375 342.577820,23.395630 343.311340,21.232422 344.070679,18.908203 344.967163,16.573242 346.111755,14.378235 347.615601,12.473511 349.589722,11.009521 352.145325,10.136536 354.119568,10.000000 356.360413,10.286804 358.810791,10.934753 361.413391,11.881287 364.111023,13.063965 366.846558,14.420349 369.562744,15.887878 372.202393,17.404175 374.708252,18.906799 377.023010,20.333191 379.089600,21.620972 380.850708,22.707520 387.126282,26.775269 393.185547,30.849182 399.042725,34.959717 404.712585,39.137268 410.209656,43.412292 415.548401,47.815186 420.743347,52.376465 425.809204,57.126465 430.760376,62.095764 435.611572,67.314758 440.377197,72.813965 445.072083,78.623901 446.014221,79.949768 446.268677,81.288940 445.944580,82.622742 445.151367,83.932617 443.998047,85.200012 442.593872,86.406250 441.048279,87.532776 439.470276,88.561096 437.969299,89.472412 436.654480,90.248352 435.635071,90.870239 435.020386,91.319397 434.567383,91.176270 433.337646,90.842773 431.525208,90.463013 429.324219,90.181213 426.928345,90.141296 424.531860,90.487366 422.328491,91.363586 420.512390,92.913940 419.277283,95.282593 418.817505,98.613708 419.326782,103.051575 420.999451,108.740356 421.694702,112.127380 421.495911,115.391052 420.596741,118.548706 419.190369,121.617310 417.470459,124.614197 415.630554,127.556580 413.864380,130.461548 412.365051,133.346375 411.326599,136.228271 410.942383,139.124390 411.406067,142.051941 412.911316,145.028168 412.841736,145.181458 412.649353,145.605255 412.358765,146.245483 411.994446,147.048096 411.581116,147.958893 411.143188,148.923798 410.705200,149.888702 410.291748,150.799500 409.927551,151.602112 409.636902,152.242401 409.444519,152.666290 409.374878,152.819580 405.073975,153.473114 402.442322,154.637512 401.229980,156.241669 401.186768,158.214539 402.062561,160.485046 403.607300,162.982117 405.570923,165.634674 407.703125,168.371765 409.753845,171.122070 411.472839,173.814697 412.610046,176.378387 412.915161,178.742096 412.241394,183.290985 411.185669,187.398468 409.898193,191.167542 408.529114,194.701050 407.228516,198.101959 406.146790,201.473236 405.433899,204.917816 405.240234,208.538666 405.715942,212.438873 407.011414,216.721405 409.276672,221.489380 412.662292,226.845856 413.255432,229.166962 412.826355,232.591705 411.575989,236.901733 409.704956,241.878632 407.413818,247.303986 404.903381,252.959381 402.374268,258.626221 400.027405,264.085968 398.063538,269.119965 396.683533,273.509491 396.088257,277.035828 396.478455,279.480255 396.641541,280.714478 395.992554,282.141968 394.697632,283.721588 392.922668,285.412201 390.833618,287.172577 388.596619,288.961609 386.377563,290.738129 384.342468,292.460907 382.657288,294.088776 381.488220,295.580566 381.001099,296.895142 381.362183,297.991211 381.639221,298.070923 382.379028,298.289093 383.457336,298.628418 384.749695,299.071411 386.131592,299.600739 387.478821,300.198944 388.666809,300.848663 389.571167,301.532471 390.067505,302.233002 390.031433,302.932800 389.338501,303.614532 387.864258,304.260712 386.366455,304.928345 384.904602,305.932312 383.516296,307.214752 382.239319,308.717773 381.111023,310.383484 380.169373,312.153931 379.451782,313.971252 378.996155,315.777405 378.839905,317.514709 379.020874,319.125061 379.576660,320.550537 380.544922,321.733276 383.083557,324.901672 384.262634,328.655823 384.229797,332.848938 383.132568,337.334167 381.118347,341.964600 378.334900,346.593262 374.929688,351.073181 371.050293,355.257507 366.844482,358.999023 362.459839,362.150757 358.044250,364.565613 353.745300,366.096619 349.924683,367.761292 345.747559,370.823547 341.285278,374.974121 336.609192,379.904053 331.790894,385.304077 326.901794,390.864990 322.013550,396.277405 317.197754,401.231934 312.526001,405.419128 308.070129,408.529419 303.901672,410.253235 300.092529,410.281189 295.592346,409.707581 289.659302,409.840027 282.581238,410.532288 274.646423,411.638123 266.142822,413.011353 257.358643,414.505798 248.582031,415.975281 240.101135,417.273560 232.204285,418.254333 225.179626,418.771545 219.315613,418.678772 214.900452,417.829895 210.047729,416.298523 204.473083,414.968079 198.318176,413.843384 191.724609,412.929382 184.833923,412.230896 177.787781,411.752991 170.727783,411.500427 163.795471,411.478149 157.132507,411.691040 150.880493,412.144043 145.180969,412.842102 140.175537,413.790039 138.639343,413.661499 136.770813,412.724792 134.671387,411.117859 132.442383,408.978516 130.185364,406.444702 128.001587,403.654175 125.992554,400.744812 124.259460,397.854370 122.903809,395.120728 122.026855,392.681641 121.729919,390.674866 122.114502,389.238098 123.910706,385.345886 124.272766,381.283875 123.461548,377.074646 121.738281,372.740906 119.363892,368.305237 116.599304,363.790222 113.705566,359.218445 110.943542,354.612549 108.574158,349.995178 106.858215,345.388794 106.056580,340.816101 106.430054,336.299622 107.160034,332.386108 107.412292,328.595520 107.234680,325.029114 106.674927,321.787781 105.780884,318.972717 104.600342,316.685059 103.180969,315.025757 101.570496,314.095886 99.816833,313.996643 97.967590,314.829163 96.070496,316.694397 94.173218,319.693787 91.703491,325.200684 89.498779,331.375732 87.468140,337.952026 85.520264,344.662720 83.564087,351.240845 81.508484,357.419373 79.262329,362.931091 76.734375,367.508850 73.833679,370.885437 70.469055,372.793579 66.549500,372.966125 61.984009,371.136047 52.806763,364.051697 44.613342,355.010742 37.373108,344.315308 31.055237,332.267456 25.628784,319.169250 21.062866,305.322510 17.326477,291.028961 14.388489,276.590149 12.217957,262.307190 10.783691,248.481232 10.054749,235.413116 10.000000,223.403442 10.031616,222.956604 10.085510,222.365601 10.154541,221.659576 10.231995,220.867737 10.311035,220.019379 10.384766,219.143738 10.446289,218.269958 10.488770,217.427338 10.505371,216.645081 10.489197,215.952393 10.433472,215.378571 10.336365,214.973969" />
			</g>
		</g>
	</g>
	<g id="blender_frame_1">
		<g id="blender_object_cutouts for layers 2-3">
			<!--Layer: GP_Layer-->
			<g id="GP_Layer">
				<polygon stroke="#000000" stroke-opacity="1" fill="none" stroke-linecap="round" stroke-width="1" points="366.843933,142.225159 365.791199,144.635712 364.315430,146.624237 362.499634,148.188568 360.427246,149.326385 358.181458,150.035583 355.845520,150.313904 353.502808,150.159119 351.236511,149.569031 349.130066,148.541534 347.266479,147.074402 345.729248,145.165405 344.601624,142.812439 344.187134,141.367828 343.929321,139.912781 343.824036,138.460876 343.867432,137.025391 344.055420,135.619934 344.383972,134.257874 344.849121,132.952637 345.446777,131.717712 346.173096,130.566528 347.023865,129.512512 347.995361,128.569153 349.083374,127.749939 351.533081,126.494019 354.001343,125.848206 356.429688,125.763855 358.759644,126.192139 360.932739,127.084229 362.890686,128.391602 364.574768,130.065247 365.926819,132.056763 366.888245,134.317200 367.400513,136.797913 367.405212,139.450134 366.871948,142.086426" />
				<polygon stroke="#000000" stroke-opacity="1" fill="none" stroke-linecap="round" stroke-width="1" points="314.238342,283.375244 314.235718,285.623444 313.876770,287.730896 313.196228,289.670593 312.228455,291.415405 311.007935,292.938324 309.569336,294.212311 307.947205,295.210266 306.175903,295.905151 304.290222,296.269928 302.324524,296.277527 300.313477,295.900940 298.291565,295.113098 296.743896,294.157227 295.428223,292.982330 294.347290,291.623077 293.503723,290.114105 292.900330,288.490051 292.539734,286.785553 292.424622,285.035217 292.557678,283.273712 292.941711,281.535675 293.579224,279.855682 294.473083,278.268372 295.625854,276.808380 297.280090,275.362457 299.097473,274.343109 301.023193,273.731079 303.003052,273.507080 304.982239,273.651855 306.906311,274.146179 308.720703,274.970795 310.370972,276.106506 311.802307,277.534027 312.960449,279.234131 313.790649,281.187622 314.216003,283.265869" />
				<polygon stroke="#000000" stroke-opacity="1" fill="none" stroke-linecap="round" stroke-width="1" points="135.794617,287.860260 134.737305,290.275269 133.257080,292.267487 131.437317,293.834686 129.361206,294.974670 127.112244,295.685150 124.773743,295.963959 122.429077,295.808929 120.161560,295.217773 118.054688,294.188354 116.191711,292.718475 114.656006,290.805939 113.530823,288.448608 113.118164,287.001434 112.862183,285.543823 112.758972,284.089203 112.804504,282.651184 112.994751,281.243103 113.325562,279.878479 113.793030,278.570801 114.393127,277.333557 115.121765,276.180206 115.974976,275.124176 116.948669,274.179047 118.038879,273.358215 120.492737,272.099884 122.964172,271.452850 125.394836,271.368286 127.726318,271.797302 129.900085,272.691101 131.857910,274.000854 133.541199,275.677734 134.891541,277.672913 135.850586,279.937561 136.359680,282.422913 136.360535,285.080109 135.822937,287.721252" />
				<polygon stroke="#000000" stroke-opacity="1" fill="none" stroke-linecap="round" stroke-width="1" points="186.695496,367.084900 185.638550,369.502380 184.158325,371.496582 182.338135,373.065369 180.261414,374.206482 178.011597,374.917664 175.671997,375.196777 173.326172,375.041565 171.057373,374.449829 168.948975,373.419373 167.084534,371.947998 165.547363,370.033569 164.420776,367.673889 164.007385,366.225159 163.750854,364.766052 163.647095,363.309998 163.692139,361.870544 163.882019,360.461121 164.212585,359.095154 164.679871,357.786194 165.279785,356.547668 166.008484,355.393250 166.861755,354.336121 167.835693,353.390015 168.926147,352.568237 171.380920,351.308777 173.853516,350.661255 176.285400,350.576599 178.618164,351.006104 180.793396,351.900818 182.752625,353.211853 184.437256,354.890320 185.788940,356.887512 186.749084,359.154358 187.259216,361.642151 187.260864,364.301941 186.723816,366.945801" />
			</g>
		</g>
	</g>
</svg>
